<svg width="1600" height="1020" viewBox="0 0 1600 1020" fill="none" xmlns="http://www.w3.org/2000/svg">
  <defs>
    <linearGradient id="bg" x1="180" y1="80" x2="1400" y2="920" gradientUnits="userSpaceOnUse">
      <stop stop-color="#1B1032"/>
      <stop offset="0.48" stop-color="#0D0816"/>
      <stop offset="1" stop-color="#061018"/>
    </linearGradient>
    <linearGradient id="frame" x1="0" y1="0" x2="0" y2="780" gradientUnits="userSpaceOnUse">
      <stop stop-color="#191726"/>
      <stop offset="1" stop-color="#0C0A14"/>
    </linearGradient>
    <linearGradient id="sceneCard" x1="0" y1="0" x2="380" y2="210" gradientUnits="userSpaceOnUse">
      <stop stop-color="#2A1D48"/>
      <stop offset="0.6" stop-color="#171326"/>
      <stop offset="1" stop-color="#120F20"/>
    </linearGradient>
    <linearGradient id="heroGlow" x1="0" y1="0" x2="1" y2="1">
      <stop stop-color="#B18CFF" stop-opacity="0.9"/>
      <stop offset="1" stop-color="#6C3FFF" stop-opacity="0.35"/>
    </linearGradient>
    <linearGradient id="searchCard" x1="0" y1="0" x2="1" y2="1">
      <stop stop-color="#181426"/>
      <stop offset="1" stop-color="#100E1B"/>
    </linearGradient>
    <filter id="shadow" x="-100" y="-100" width="1800" height="1300" filterUnits="userSpaceOnUse" color-interpolation-filters="sRGB">
      <feDropShadow dx="0" dy="25" stdDeviation="28" flood-color="#000000" flood-opacity="0.42"/>
    </filter>
    <filter id="softGlow" x="-50%" y="-50%" width="200%" height="200%">
      <feGaussianBlur stdDeviation="35"/>
    </filter>
    <style>
      .display { font-family: Arial, sans-serif; font-weight: 700; }
      .body { font-family: Arial, sans-serif; font-weight: 500; }
      .label { font-family: Arial, sans-serif; font-weight: 600; letter-spacing: 1.5px; }
    </style>
  </defs>

  <rect width="1600" height="1020" fill="url(#bg)"/>
  <circle cx="220" cy="160" r="190" fill="#7D53FF" fill-opacity="0.24" filter="url(#softGlow)"/>
  <circle cx="1410" cy="870" r="230" fill="#12D4C8" fill-opacity="0.12" filter="url(#softGlow)"/>

  <text x="110" y="116" fill="#DAD5F5" font-size="18" class="label">SOCIAL SLICE PREVIEW</text>
  <text x="110" y="162" fill="#FFFFFF" font-size="56" class="display">Duty empieza a sentirse</text>
  <text x="110" y="220" fill="#B391FF" font-size="56" class="display">como red social de eventos</text>
  <text x="110" y="276" fill="#9DA6C6" font-size="22" class="body">Feed social, conexiones visibles, perfiles con contexto relacional y Search con social proof.</text>

  <!-- Phone 1: Home -->
  <g filter="url(#shadow)">
    <rect x="86" y="330" width="430" height="610" rx="42" fill="#05060B"/>
    <rect x="102" y="346" width="398" height="578" rx="34" fill="url(#frame)"/>
    <rect x="233" y="360" width="134" height="28" rx="14" fill="#0B0B12"/>
  </g>
  <text x="130" y="400" fill="#FFFFFF" font-size="16" class="body">9:41</text>
  <text x="130" y="436" fill="#FFFFFF" font-size="15" class="label">HOME / YOUR SCENE</text>
  <text x="130" y="470" fill="#FFFFFF" font-size="28" class="display">What your people</text>
  <text x="130" y="504" fill="#FFFFFF" font-size="28" class="display">are planning tonight</text>
  <text x="130" y="534" fill="#A0A6BF" font-size="13" class="body">Built from who you follow, what they save and where they show up.</text>

  <rect x="130" y="564" width="82" height="34" rx="17" fill="#1E1730"/>
  <text x="147" y="586" fill="#FFFFFF" font-size="13" class="body">12 People</text>
  <rect x="220" y="564" width="92" height="34" rx="17" fill="#1E1730"/>
  <text x="238" y="586" fill="#FFFFFF" font-size="13" class="body">8 Profiles</text>
  <rect x="320" y="564" width="88" height="34" rx="17" fill="#2B2010"/>
  <text x="338" y="586" fill="#FFD988" font-size="13" class="body">3 Requests</text>

  <rect x="130" y="626" width="342" height="228" rx="28" fill="url(#sceneCard)" stroke="#6C52B2" stroke-opacity="0.34"/>
  <rect x="148" y="644" width="182" height="28" rx="14" fill="#1F2B25" stroke="#3ABF8C" stroke-opacity="0.45"/>
  <text x="164" y="663" fill="#FFFFFF" font-size="12" class="body">Jade Rivera is going</text>
  <rect x="148" y="686" width="306" height="116" rx="22" fill="#2A2338"/>
  <text x="168" y="736" fill="#FFFFFF" font-size="30" class="display">Network Night</text>
  <text x="168" y="764" fill="#C1C6DD" font-size="13" class="body">Club Mirage • Thu 27 Mar • 10:00 PM</text>
  <circle cx="168" cy="822" r="14" fill="#574A72"/>
  <circle cx="188" cy="822" r="14" fill="#6B5A8D"/>
  <circle cx="208" cy="822" r="14" fill="#7B69A1"/>
  <text x="230" y="826" fill="#D2D6E8" font-size="12" class="body">3 people in your network</text>
  <rect x="386" y="808" width="68" height="30" rx="15" fill="#2C2140"/>
  <text x="407" y="827" fill="#B391FF" font-size="12" class="body">Open</text>

  <rect x="130" y="872" width="170" height="28" rx="14" fill="#1A1524"/>
  <text x="146" y="890" fill="#B391FF" font-size="11" class="label">SOCIAL PROOF ON CARDS</text>
  <rect x="130" y="904" width="162" height="24" rx="12" fill="#171326"/>
  <text x="144" y="920" fill="#FFFFFF" font-size="11" class="body">2 people you follow are interested</text>

  <!-- Phone 2: Public Profile -->
  <g filter="url(#shadow)">
    <rect x="584" y="290" width="430" height="650" rx="42" fill="#05060B"/>
    <rect x="600" y="306" width="398" height="618" rx="34" fill="url(#frame)"/>
    <rect x="731" y="320" width="134" height="28" rx="14" fill="#0B0B12"/>
  </g>
  <text x="628" y="360" fill="#FFFFFF" font-size="16" class="body">Public Profile</text>
  <circle cx="800" cy="438" r="66" fill="#1D1730" stroke="#8E66FF" stroke-width="3"/>
  <circle cx="800" cy="438" r="52" fill="url(#heroGlow)"/>
  <text x="722" y="540" fill="#FFFFFF" font-size="30" class="display">Jade Rivera</text>
  <text x="753" y="570" fill="#9AA3C3" font-size="14" class="body">@friend</text>
  <text x="700" y="596" fill="#7E89A9" font-size="13" class="body">Santo Domingo, RD • Joined May 2024</text>

  <rect x="652" y="620" width="96" height="58" rx="16" fill="#13111D"/>
  <text x="683" y="646" fill="#FFFFFF" font-size="22" class="display">18</text>
  <text x="674" y="665" fill="#8690AF" font-size="12" class="body">Followers</text>
  <rect x="752" y="620" width="96" height="58" rx="16" fill="#13111D"/>
  <text x="781" y="646" fill="#FFFFFF" font-size="22" class="display">27</text>
  <text x="772" y="665" fill="#8690AF" font-size="12" class="body">Following</text>
  <rect x="852" y="620" width="96" height="58" rx="16" fill="#13111D"/>
  <text x="883" y="646" fill="#FFFFFF" font-size="22" class="display">9</text>
  <text x="879" y="665" fill="#8690AF" font-size="12" class="body">Events</text>

  <rect x="654" y="696" width="122" height="34" rx="17" fill="#1C1728"/>
  <text x="675" y="718" fill="#FFFFFF" font-size="12" class="body">2 upcoming</text>
  <rect x="786" y="696" width="112" height="34" rx="17" fill="#1C1728"/>
  <text x="808" y="718" fill="#FFFFFF" font-size="12" class="body">Follows you</text>
  <rect x="706" y="740" width="184" height="36" rx="18" fill="#241A3B" stroke="#8E66FF" stroke-opacity="0.4"/>
  <text x="741" y="763" fill="#CDBAFF" font-size="12" class="body">Mutual connection</text>

  <rect x="650" y="800" width="136" height="44" rx="16" fill="#8456F7"/>
  <text x="688" y="828" fill="#FFFFFF" font-size="15" class="body">Following</text>
  <rect x="796" y="800" width="168" height="44" rx="16" fill="#171326" stroke="#FFFFFF" stroke-opacity="0.12"/>
  <text x="847" y="828" fill="#FFFFFF" font-size="15" class="body">Message</text>
  <text x="666" y="880" fill="#8E97B5" font-size="12" class="label">TAP FOLLOWERS / FOLLOWING TO OPEN CONNECTIONS</text>

  <!-- Phone 3: Search -->
  <g filter="url(#shadow)">
    <rect x="1082" y="330" width="430" height="610" rx="42" fill="#05060B"/>
    <rect x="1098" y="346" width="398" height="578" rx="34" fill="url(#frame)"/>
    <rect x="1229" y="360" width="134" height="28" rx="14" fill="#0B0B12"/>
  </g>
  <text x="1126" y="400" fill="#FFFFFF" font-size="16" class="body">Search</text>
  <rect x="1126" y="424" width="342" height="50" rx="18" fill="#171326" stroke="#FFFFFF" stroke-opacity="0.08"/>
  <text x="1154" y="455" fill="#9AA4C0" font-size="14" class="body">Search events, artists, venues...</text>

  <rect x="1126" y="510" width="342" height="96" rx="18" fill="url(#searchCard)" stroke="#FFFFFF" stroke-opacity="0.05"/>
  <rect x="1142" y="526" width="50" height="50" rx="14" fill="#241A3B"/>
  <text x="1210" y="542" fill="#FFFFFF" font-size="16" class="display">Jade Rivera</text>
  <text x="1210" y="562" fill="#8E97B5" font-size="12" class="body">@friend</text>
  <rect x="1210" y="578" width="68" height="22" rx="11" fill="#231939"/>
  <text x="1226" y="592" fill="#CDBAFF" font-size="10" class="body">Mutual</text>
  <rect x="1284" y="578" width="82" height="22" rx="11" fill="#181624"/>
  <text x="1298" y="592" fill="#D7DBEA" font-size="10" class="body">18 followers</text>
  <text x="1440" y="560" fill="#7C86A8" font-size="18" class="body">›</text>

  <rect x="1126" y="622" width="342" height="96" rx="18" fill="url(#searchCard)" stroke="#FFFFFF" stroke-opacity="0.05"/>
  <rect x="1142" y="638" width="50" height="50" rx="14" fill="#102734"/>
  <text x="1210" y="654" fill="#FFFFFF" font-size="16" class="display">Club Mirage</text>
  <text x="1210" y="674" fill="#8E97B5" font-size="12" class="body">Organizer • Santo Domingo</text>
  <rect x="1210" y="690" width="82" height="22" rx="11" fill="#181624"/>
  <text x="1224" y="704" fill="#D7DBEA" font-size="10" class="body">1.2K followers</text>
  <rect x="1298" y="690" width="74" height="22" rx="11" fill="#181624"/>
  <text x="1313" y="704" fill="#D7DBEA" font-size="10" class="body">6 upcoming</text>
  <text x="1440" y="672" fill="#7C86A8" font-size="18" class="body">›</text>

  <rect x="1126" y="734" width="342" height="96" rx="18" fill="url(#searchCard)" stroke="#FFFFFF" stroke-opacity="0.05"/>
  <rect x="1142" y="750" width="50" height="50" rx="14" fill="#1F1432"/>
  <text x="1210" y="766" fill="#FFFFFF" font-size="16" class="display">DJ Arcadia</text>
  <text x="1210" y="786" fill="#8E97B5" font-size="12" class="body">@djarcadia</text>
  <rect x="1210" y="802" width="76" height="22" rx="11" fill="#231939"/>
  <text x="1225" y="816" fill="#CDBAFF" font-size="10" class="body">Verified</text>
  <rect x="1292" y="802" width="74" height="22" rx="11" fill="#181624"/>
  <text x="1308" y="816" fill="#D7DBEA" font-size="10" class="body">24 reviews</text>
  <text x="1440" y="784" fill="#7C86A8" font-size="18" class="body">›</text>

  <text x="110" y="972" fill="#8E97B5" font-size="15" class="body">Dirección visual: oscuro editorial, señales sociales cortas, jerarquía clara y suficiente contexto para volver a abrir la app.</text>
</svg>
