<svg xmlns="http://www.w3.org/2000/svg" xmlns:xlink="http://www.w3.org/1999/xlink" width="1000" zoomAndPan="magnify" viewBox="0 0 750 749.999995" height="1000" preserveAspectRatio="xMidYMid meet" version="1.2"><defs><clipPath id="56fada6672"><path d="M 108.414062 0.667969 L 442 0.667969 L 442 348.023438 L 108.414062 348.023438 Z M 108.414062 0.667969 "/></clipPath><clipPath id="929b6070ee"><path d="M 264.5625 1.65625 C 253.125 3.8125 243.15625 9.386719 234.394531 18.527344 C 225.335938 27.972656 220.253906 38.097656 218.09375 50.988281 C 212.953125 81.671875 231.464844 111.335938 260.953125 119.671875 C 268.511719 121.808594 282.203125 121.789062 289.8125 119.632812 C 327.382812 108.980469 344.542969 64.640625 324.65625 29.613281 C 321.011719 23.191406 311.5 13.273438 305.347656 9.46875 C 292.808594 1.722656 278.617188 -0.996094 264.5625 1.65625 Z M 288.542969 12.84375 C 304.878906 18.152344 316.429688 30.273438 321.546875 47.480469 C 323.722656 54.792969 323.722656 67.359375 321.546875 74.671875 C 316.433594 91.859375 304.695312 104.101562 288.21875 109.4375 C 281.207031 111.707031 269.160156 111.707031 262.152344 109.4375 C 245.671875 104.101562 233.933594 91.859375 228.820312 74.671875 C 226.644531 67.355469 226.644531 54.792969 228.820312 47.480469 C 234.507812 28.375 248.816406 14.933594 267.210938 11.425781 C 272.351562 10.445312 283.425781 11.183594 288.542969 12.84375 Z M 285.191406 58.867188 C 276.394531 67.746094 268.949219 75.011719 268.644531 75.011719 C 268.339844 75.011719 265.714844 72.792969 262.804688 70.082031 C 257.410156 65.050781 255.722656 64.328125 252.953125 65.875 C 251.066406 66.929688 250.195312 69.773438 251.109375 71.90625 C 251.519531 72.867188 255.195312 76.785156 259.277344 80.617188 C 269.117188 89.851562 268.503906 89.871094 278.355469 79.957031 C 311.140625 46.960938 309.992188 48.386719 307.070312 44.511719 C 306.074219 43.191406 305.125 42.722656 303.453125 42.722656 C 301.378906 42.722656 299.832031 44.089844 285.191406 58.867188 Z M 128.703125 56.328125 C 120.90625 57.515625 113.234375 63.921875 110.191406 71.785156 L 108.679688 75.691406 L 108.496094 175.238281 C 108.386719 236.066406 108.5625 276.613281 108.941406 279.484375 C 110.089844 288.113281 114.527344 294.601562 122.140625 298.785156 L 125.621094 300.699219 L 169.449219 300.886719 L 213.273438 301.074219 L 213.273438 321.21875 L 207.070312 329.824219 L 200.867188 338.425781 L 197.347656 338.425781 C 192.785156 338.425781 191.800781 338.871094 190.785156 341.386719 C 189.84375 343.726562 190.4375 346.238281 192.28125 347.699219 C 193.183594 348.410156 209.214844 348.585938 275.714844 348.601562 C 327.210938 348.617188 358.472656 348.378906 359.207031 347.96875 C 359.851562 347.609375 360.734375 346.417969 361.167969 345.320312 C 361.820312 343.679688 361.785156 342.964844 360.957031 341.296875 C 359.714844 338.789062 358.835938 338.425781 353.996094 338.425781 L 350.152344 338.425781 L 343.949219 329.824219 L 337.746094 321.21875 L 337.746094 301.074219 L 424.746094 300.699219 L 428.332031 298.785156 C 435.679688 294.859375 440.285156 288.074219 441.425781 279.484375 C 441.808594 276.613281 441.980469 236.066406 441.871094 175.238281 L 441.691406 75.691406 L 440.117188 71.613281 C 437.953125 65.996094 432.039062 59.84375 426.703125 57.652344 C 422.996094 56.132812 421.988281 56.046875 407.382812 56.011719 C 393.121094 55.980469 391.875 56.074219 390.601562 57.273438 C 389.679688 58.144531 389.230469 59.386719 389.230469 61.074219 C 389.230469 65.558594 389.660156 65.683594 406.5 65.960938 C 420.28125 66.1875 421.699219 66.320312 424.09375 67.652344 C 427.109375 69.328125 428.984375 71.320312 430.699219 74.671875 C 431.867188 76.953125 431.921875 80.730469 432.09375 168.992188 L 432.269531 260.933594 L 300.015625 260.933594 C 227.277344 260.933594 167.289062 261.121094 166.707031 261.355469 C 165.136719 261.984375 163.65625 265.421875 164.121094 267.355469 C 164.996094 270.992188 156.789062 270.765625 299.234375 271.128906 L 431.914062 271.46875 L 431.726562 276.195312 C 431.496094 282.015625 429.804688 285.523438 425.832031 288.433594 L 423.003906 290.5 L 127.363281 290.5 L 124.539062 288.433594 C 120.5625 285.523438 118.871094 282.015625 118.640625 276.195312 L 118.453125 271.46875 L 134.0625 271.285156 C 149.03125 271.109375 149.738281 271.042969 151.171875 269.636719 C 153.289062 267.5625 153.1875 264.175781 150.949219 262.339844 C 149.320312 261.003906 148.425781 260.933594 133.667969 260.933594 L 118.101562 260.933594 L 118.453125 77.050781 L 119.855469 74.332031 C 121.480469 71.179688 123.394531 69.226562 126.597656 67.441406 C 128.730469 66.257812 131.398438 66.152344 167.140625 65.832031 C 204.4375 65.503906 205.421875 65.460938 206.382812 64.132812 C 208.425781 61.316406 207.261719 57.679688 203.890625 56.34375 C 201.804688 55.515625 134.132812 55.503906 128.703125 56.328125 Z M 346.277344 56.351562 C 342.898438 57.816406 341.929688 61.707031 344.289062 64.34375 C 345.578125 65.792969 346.03125 65.832031 360.480469 65.832031 C 374.050781 65.832031 375.4375 65.726562 376.421875 64.589844 C 377.96875 62.808594 377.808594 58.859375 376.128906 57.273438 C 374.886719 56.097656 373.5 55.960938 361.300781 55.824219 C 353.449219 55.734375 347.195312 55.957031 346.277344 56.351562 Z M 181.339844 143.441406 C 177.976562 144.445312 175.140625 146.980469 173.558594 150.386719 C 172.214844 153.285156 172.164062 154.144531 172.351562 172.101562 L 172.542969 190.800781 L 174.5 193.683594 C 175.574219 195.273438 177.625 197.210938 179.058594 197.992188 C 181.617188 199.382812 182.507812 199.414062 224.085938 199.59375 C 266.277344 199.777344 266.511719 199.773438 268.238281 198.355469 C 270.40625 196.578125 270.613281 192.945312 268.667969 190.914062 C 267.390625 189.582031 266.496094 189.554688 225.703125 189.554688 C 188.699219 189.554688 183.925781 189.433594 183.015625 188.484375 C 181.484375 186.886719 181.484375 155.511719 183.015625 153.914062 C 183.933594 152.957031 191.292969 152.847656 254.261719 152.847656 L 324.484375 152.847656 L 325.902344 151.273438 C 327.652344 149.332031 327.71875 146.714844 326.074219 144.59375 L 324.828125 142.988281 L 254.222656 142.875 C 208.714844 142.800781 182.8125 143.003906 181.339844 143.441406 Z M 341.242188 143.417969 C 339.851562 144.148438 338.398438 146.675781 338.398438 148.367188 C 338.398438 148.859375 339.003906 150.070312 339.75 151.054688 L 341.097656 152.847656 L 353.714844 152.847656 C 364.3125 152.847656 366.492188 153.015625 367.351562 153.914062 C 368.886719 155.511719 368.886719 186.886719 367.351562 188.484375 C 366.503906 189.371094 364.492188 189.554688 355.691406 189.554688 C 344.015625 189.554688 342.820312 189.921875 341.945312 193.785156 C 341.605469 195.277344 341.917969 196.050781 343.535156 197.738281 L 345.550781 199.835938 L 357.125 199.625 C 370.449219 199.378906 372.441406 198.746094 375.871094 193.683594 L 377.824219 190.796875 L 377.824219 151.601562 L 375.871094 148.714844 C 372.347656 143.515625 370.621094 143.011719 355.667969 142.839844 C 347.398438 142.742188 342.125 142.953125 341.242188 143.417969 Z M 283.503906 182.054688 C 282.609375 182.789062 281.542969 184.242188 281.132812 185.28125 C 280.71875 186.324219 279.835938 196.808594 279.167969 208.585938 C 277.804688 232.488281 277.878906 233.21875 281.824219 235.800781 C 285.046875 237.910156 288.492188 237.300781 293.324219 233.765625 C 295.484375 232.183594 297.539062 231.070312 297.886719 231.292969 C 298.234375 231.515625 300.574219 234.851562 303.085938 238.703125 C 307.898438 246.078125 309.425781 247.335938 313.546875 247.335938 C 315.558594 247.335938 317.335938 246.375 323.234375 242.089844 C 327.210938 239.203125 330.964844 235.960938 331.574219 234.882812 C 333.480469 231.519531 332.5625 228.527344 327.113281 220.328125 L 322.214844 212.949219 L 326.789062 209.664062 C 332.230469 205.757812 333.738281 203.007812 332.609375 199.0625 C 332.21875 197.714844 331.179688 195.902344 330.300781 195.039062 C 328.265625 193.046875 291.757812 180.75 287.816406 180.730469 C 286.121094 180.722656 284.535156 181.207031 283.503906 182.054688 Z M 306.628906 196.890625 C 314.066406 199.359375 320.148438 201.546875 320.148438 201.757812 C 320.148438 201.96875 318.210938 203.515625 315.835938 205.191406 C 311.410156 208.324219 310.019531 210.433594 310.769531 212.886719 C 311.003906 213.65625 313.503906 217.761719 316.324219 222.011719 C 319.144531 226.261719 321.453125 230.011719 321.453125 230.351562 C 321.453125 230.691406 319.65625 232.246094 317.457031 233.804688 C 314.324219 236.023438 313.34375 236.433594 312.9375 235.699219 C 310.570312 231.394531 302.253906 219.679688 301.085938 219.003906 C 298.886719 217.726562 298.5625 217.832031 293.1875 221.492188 C 288.578125 224.628906 288.21875 224.765625 288.210938 223.359375 C 288.199219 220.003906 289.628906 194.546875 289.910156 193.085938 C 290.15625 191.832031 290.503906 191.605469 291.660156 191.960938 C 292.453125 192.207031 299.191406 194.425781 306.628906 196.890625 Z M 327.972656 312.820312 L 327.972656 324.597656 L 332.816406 331.34375 L 337.660156 338.085938 L 306.796875 338.265625 C 289.824219 338.359375 261.855469 338.359375 244.648438 338.265625 L 213.359375 338.085938 L 218.203125 331.34375 L 223.050781 324.597656 L 223.050781 301.039062 L 327.972656 301.039062 Z M 327.972656 312.820312 "/></clipPath><clipPath id="5dd162cff2"><path d="M 0.519531 380 L 74 380 L 74 478 L 0.519531 478 Z M 0.519531 380 "/></clipPath><clipPath id="cc862d4a94"><path d="M 50.914062 426.359375 C 57.542969 427.570312 62.894531 429.949219 66.964844 433.496094 C 71.132812 436.945312 73.214844 442.261719 73.214844 449.445312 C 73.214844 459.613281 69.523438 466.84375 62.136719 471.132812 C 54.75 475.425781 44.472656 477.570312 31.308594 477.570312 L 0.625 477.570312 L 0.625 380.742188 L 27.472656 380.742188 C 40.921875 380.742188 51.199219 382.703125 58.300781 386.621094 C 65.402344 390.539062 68.953125 396.832031 68.953125 405.507812 C 68.953125 411.199219 67.203125 415.816406 63.699219 419.363281 C 60.289062 422.8125 56.027344 425.144531 50.914062 426.359375 Z M 21.507812 395.574219 L 21.507812 420.0625 L 31.734375 420.0625 C 36.851562 420.0625 40.78125 419.035156 43.527344 416.984375 C 46.273438 414.835938 47.648438 411.621094 47.648438 407.328125 C 47.648438 403.039062 46.179688 400.003906 43.242188 398.234375 C 40.304688 396.460938 35.714844 395.574219 29.464844 395.574219 Z M 31.453125 462.320312 C 37.988281 462.320312 42.957031 461.386719 46.367188 459.519531 C 49.777344 457.5625 51.480469 453.921875 51.480469 448.605469 C 51.480469 438.90625 45.421875 434.054688 33.296875 434.054688 L 21.507812 434.054688 L 21.507812 462.320312 Z M 31.453125 462.320312 "/></clipPath><clipPath id="fcd6eacc38"><path d="M 83 401 L 156 401 L 156 480 L 83 480 Z M 83 401 "/></clipPath><clipPath id="a7cf4dab2a"><path d="M 119.273438 401.171875 C 130.542969 401.171875 139.351562 404.667969 145.695312 411.664062 C 152.042969 418.570312 155.214844 428.175781 155.214844 440.492188 C 155.214844 448.328125 153.746094 455.230469 150.808594 461.199219 C 147.96875 467.078125 143.800781 471.648438 138.308594 474.914062 C 132.910156 478.175781 126.519531 479.808594 119.132812 479.808594 C 107.863281 479.808594 99.007812 476.359375 92.570312 469.457031 C 86.222656 462.457031 83.050781 452.804688 83.050781 440.492188 C 83.050781 432.65625 84.472656 425.796875 87.3125 419.921875 C 90.25 413.953125 94.414062 409.332031 99.8125 406.070312 C 105.304688 402.804688 111.792969 401.171875 119.273438 401.171875 Z M 119.273438 416.003906 C 114.160156 416.003906 110.324219 418.007812 107.769531 422.019531 C 105.304688 425.9375 104.074219 432.09375 104.074219 440.492188 C 104.074219 448.886719 105.304688 455.089844 107.769531 459.101562 C 110.324219 463.019531 114.113281 464.976562 119.132812 464.976562 C 124.152344 464.976562 127.890625 463.019531 130.355469 459.101562 C 132.910156 455.089844 134.191406 448.886719 134.191406 440.492188 C 134.191406 432.09375 132.960938 425.9375 130.496094 422.019531 C 128.035156 418.007812 124.292969 416.003906 119.273438 416.003906 Z M 119.273438 416.003906 "/></clipPath><clipPath id="1fb35cc097"><path d="M 166 401 L 239 401 L 239 480 L 166 480 Z M 166 401 "/></clipPath><clipPath id="18bbcc3e64"><path d="M 202.230469 401.171875 C 213.5 401.171875 222.308594 404.667969 228.652344 411.664062 C 235 418.570312 238.171875 428.175781 238.171875 440.492188 C 238.171875 448.328125 236.703125 455.230469 233.769531 461.199219 C 230.925781 467.078125 226.761719 471.648438 221.265625 474.914062 C 215.871094 478.175781 209.476562 479.808594 202.089844 479.808594 C 190.820312 479.808594 181.964844 476.359375 175.527344 469.457031 C 169.179688 462.457031 166.007812 452.804688 166.007812 440.492188 C 166.007812 432.65625 167.429688 425.796875 170.269531 419.921875 C 173.207031 413.953125 177.371094 409.332031 182.769531 406.070312 C 188.261719 402.804688 194.75 401.171875 202.230469 401.171875 Z M 202.230469 416.003906 C 197.117188 416.003906 193.28125 418.007812 190.726562 422.019531 C 188.261719 425.9375 187.03125 432.09375 187.03125 440.492188 C 187.03125 448.886719 188.261719 455.089844 190.726562 459.101562 C 193.28125 463.019531 197.070312 464.976562 202.089844 464.976562 C 207.109375 464.976562 210.851562 463.019531 213.3125 459.101562 C 215.871094 455.089844 217.148438 448.886719 217.148438 440.492188 C 217.148438 432.09375 215.917969 425.9375 213.453125 422.019531 C 210.992188 418.007812 207.25 416.003906 202.230469 416.003906 Z M 202.230469 416.003906 "/></clipPath><clipPath id="e954249ba7"><path d="M 253 371 L 322 371 L 322 478 L 253 478 Z M 253 371 "/></clipPath><clipPath id="08d73ed211"><path d="M 273.683594 371.648438 L 273.683594 477.570312 L 253.511719 477.570312 L 253.511719 373.886719 Z M 319.425781 403.410156 L 295.417969 436.011719 L 321.554688 477.570312 L 298.683594 477.570312 L 274.394531 436.992188 L 298.542969 403.410156 Z M 319.425781 403.410156 "/></clipPath><clipPath id="8e6d9f948b"><path d="M 322 401 L 392 401 L 392 480 L 322 480 Z M 322 401 "/></clipPath><clipPath id="7fdbeb91c0"><path d="M 385.953125 457 C 385.953125 459.894531 386.378906 462.039062 387.234375 463.4375 C 388.085938 464.746094 389.503906 465.722656 391.496094 466.378906 L 387.234375 479.53125 C 382.78125 479.15625 379.136719 478.128906 376.292969 476.449219 C 373.546875 474.773438 371.417969 472.160156 369.902344 468.617188 C 364.976562 476.078125 357.449219 479.808594 347.316406 479.808594 C 339.835938 479.808594 333.867188 477.710938 329.417969 473.511719 C 325.0625 469.222656 322.882812 463.671875 322.882812 456.863281 C 322.882812 448.746094 325.867188 442.542969 331.832031 438.25 C 337.796875 433.960938 346.367188 431.816406 357.542969 431.816406 L 366.210938 431.816406 L 366.210938 428.175781 C 366.210938 423.605469 365.167969 420.433594 363.082031 418.664062 C 361 416.890625 357.542969 416.003906 352.714844 416.003906 C 347.410156 416.003906 340.78125 417.308594 332.828125 419.921875 L 328.28125 406.628906 C 337.65625 402.992188 346.9375 401.171875 356.125 401.171875 C 366.351562 401.171875 373.878906 403.363281 378.710938 407.75 C 383.539062 412.039062 385.953125 418.476562 385.953125 427.058594 Z M 352.855469 465.539062 C 358.539062 465.539062 362.988281 462.785156 366.210938 457.28125 L 366.210938 443.148438 L 359.53125 443.148438 C 348.640625 443.148438 343.195312 447.160156 343.195312 455.183594 C 343.195312 458.449219 344 461.011719 345.609375 462.878906 C 347.316406 464.652344 349.730469 465.539062 352.855469 465.539062 Z M 352.855469 465.539062 "/></clipPath><clipPath id="1aae47d9a7"><path d="M 406 401 L 475 401 L 475 509 L 406 509 Z M 406 401 "/></clipPath><clipPath id="5043e9c1ad"><path d="M 446.738281 401.171875 C 456.207031 401.171875 463.214844 404.625 467.761719 411.527344 C 472.402344 418.335938 474.71875 427.945312 474.71875 440.351562 C 474.71875 447.90625 473.539062 454.667969 471.167969 460.640625 C 468.800781 466.609375 465.347656 471.320312 460.800781 474.773438 C 456.347656 478.128906 451.046875 479.808594 444.890625 479.808594 C 437.214844 479.808594 431.015625 477.152344 426.277344 471.832031 L 426.277344 506.117188 L 406.109375 508.355469 L 406.109375 403.410156 L 423.867188 403.410156 L 424.859375 412.085938 C 427.699219 408.449219 431.015625 405.742188 434.800781 403.96875 C 438.683594 402.105469 442.664062 401.171875 446.738281 401.171875 Z M 438.921875 464.976562 C 448.769531 464.976562 453.699219 456.816406 453.699219 440.492188 C 453.699219 431.535156 452.609375 425.191406 450.429688 421.460938 C 448.253906 417.730469 444.9375 415.863281 440.484375 415.863281 C 437.644531 415.863281 434.992188 416.75 432.53125 418.523438 C 430.160156 420.203125 428.078125 422.488281 426.277344 425.378906 L 426.277344 457.703125 C 429.5 462.550781 433.714844 464.976562 438.921875 464.976562 Z M 438.921875 464.976562 "/></clipPath><clipPath id="06dfbb6be1"><path d="M 490 401 L 559.480469 401 L 559.480469 509 L 490 509 Z M 490 401 "/></clipPath><clipPath id="0fa8c5de75"><path d="M 531.359375 401.171875 C 540.828125 401.171875 547.835938 404.625 552.382812 411.527344 C 557.023438 418.335938 559.34375 427.945312 559.34375 440.351562 C 559.34375 447.90625 558.160156 454.667969 555.792969 460.640625 C 553.421875 466.609375 549.96875 471.320312 545.421875 474.773438 C 540.96875 478.128906 535.667969 479.808594 529.511719 479.808594 C 521.84375 479.808594 515.636719 477.152344 510.902344 471.832031 L 510.902344 506.117188 L 490.734375 508.355469 L 490.734375 403.410156 L 508.488281 403.410156 L 509.480469 412.085938 C 512.320312 408.449219 515.636719 405.742188 519.421875 403.96875 C 523.304688 402.105469 527.289062 401.171875 531.359375 401.171875 Z M 523.542969 464.976562 C 533.390625 464.976562 538.320312 456.816406 538.320312 440.492188 C 538.320312 431.535156 537.230469 425.191406 535.050781 421.460938 C 532.875 417.730469 529.558594 415.863281 525.105469 415.863281 C 522.265625 415.863281 519.613281 416.75 517.152344 418.523438 C 514.78125 420.203125 512.703125 422.488281 510.902344 425.378906 L 510.902344 457.703125 C 514.121094 462.550781 518.335938 464.976562 523.542969 464.976562 Z M 523.542969 464.976562 "/></clipPath><clipPath id="0808a5ac56"><rect x="0" width="560" y="0" height="512"/></clipPath></defs><g id="bca1da2675"><g transform="matrix(1,0,0,1,95,119)"><g clip-path="url(#0808a5ac56)"><g clip-rule="nonzero" clip-path="url(#56fada6672)"><g clip-rule="evenodd" clip-path="url(#929b6070ee)"><path style=" stroke:none;fill-rule:nonzero;fill:#ffffff;fill-opacity:1;" d="M 108.414062 0.667969 L 108.414062 348.023438 L 441.980469 348.023438 L 441.980469 0.667969 Z M 108.414062 0.667969 "/></g></g><g clip-rule="nonzero" clip-path="url(#5dd162cff2)"><g clip-rule="nonzero" clip-path="url(#cc862d4a94)"><path style=" stroke:none;fill-rule:nonzero;fill:#ffffff;fill-opacity:1;" d="M 0.625 380.742188 L 0.625 477.570312 L 73.214844 477.570312 L 73.214844 380.742188 Z M 0.625 380.742188 "/></g></g><g clip-rule="nonzero" clip-path="url(#fcd6eacc38)"><g clip-rule="nonzero" clip-path="url(#a7cf4dab2a)"><path style=" stroke:none;fill-rule:nonzero;fill:#ffffff;fill-opacity:1;" d="M 83.050781 401.171875 L 83.050781 479.808594 L 155.214844 479.808594 L 155.214844 401.171875 Z M 83.050781 401.171875 "/></g></g><g clip-rule="nonzero" clip-path="url(#1fb35cc097)"><g clip-rule="nonzero" clip-path="url(#18bbcc3e64)"><path style=" stroke:none;fill-rule:nonzero;fill:#ffffff;fill-opacity:1;" d="M 166.007812 401.171875 L 166.007812 479.808594 L 238.171875 479.808594 L 238.171875 401.171875 Z M 166.007812 401.171875 "/></g></g><g clip-rule="nonzero" clip-path="url(#e954249ba7)"><g clip-rule="nonzero" clip-path="url(#08d73ed211)"><path style=" stroke:none;fill-rule:nonzero;fill:#ffffff;fill-opacity:1;" d="M 253.511719 371.648438 L 253.511719 477.570312 L 321.554688 477.570312 L 321.554688 371.648438 Z M 253.511719 371.648438 "/></g></g><g clip-rule="nonzero" clip-path="url(#8e6d9f948b)"><g clip-rule="nonzero" clip-path="url(#7fdbeb91c0)"><path style=" stroke:none;fill-rule:nonzero;fill:#ffffff;fill-opacity:1;" d="M 322.882812 401.171875 L 322.882812 479.808594 L 391.496094 479.808594 L 391.496094 401.171875 Z M 322.882812 401.171875 "/></g></g><g clip-rule="nonzero" clip-path="url(#1aae47d9a7)"><g clip-rule="nonzero" clip-path="url(#5043e9c1ad)"><path style=" stroke:none;fill-rule:nonzero;fill:#ffffff;fill-opacity:1;" d="M 406.109375 401.171875 L 406.109375 508.355469 L 474.71875 508.355469 L 474.71875 401.171875 Z M 406.109375 401.171875 "/></g></g><g clip-rule="nonzero" clip-path="url(#06dfbb6be1)"><g clip-rule="nonzero" clip-path="url(#0fa8c5de75)"><path style=" stroke:none;fill-rule:nonzero;fill:#ffffff;fill-opacity:1;" d="M 490.734375 401.171875 L 490.734375 508.355469 L 559.34375 508.355469 L 559.34375 401.171875 Z M 490.734375 401.171875 "/></g></g></g></g></g></svg>