<svg xmlns="http://www.w3.org/2000/svg" xmlns:xlink="http://www.w3.org/1999/xlink" width="50" zoomAndPan="magnify" viewBox="0 0 37.5 37.499999" height="50" preserveAspectRatio="xMidYMid meet" version="1.0"><defs><clipPath id="327b8f5cb2"><path d="M 5 4.8125 L 32 4.8125 L 32 32.195312 L 5 32.195312 Z M 5 4.8125 " clip-rule="nonzero"/></clipPath></defs><g clip-path="url(#327b8f5cb2)"><path fill="#686868" d="M 27.789062 32.195312 C 27.367188 32.195312 26.949219 32.109375 26.558594 31.945312 C 26.171875 31.78125 25.816406 31.542969 25.519531 31.242188 L 18.503906 24.265625 L 11.484375 31.246094 C 11.035156 31.703125 10.457031 32.015625 9.828125 32.140625 C 9.199219 32.261719 8.542969 32.195312 7.953125 31.941406 C 7.359375 31.703125 6.847656 31.289062 6.492188 30.753906 C 6.132812 30.21875 5.945312 29.589844 5.953125 28.949219 L 5.953125 10.515625 C 5.953125 9.003906 6.554688 7.550781 7.621094 6.480469 C 8.691406 5.410156 10.144531 4.8125 11.65625 4.8125 L 25.351562 4.8125 C 26.097656 4.8125 26.839844 4.957031 27.53125 5.246094 C 28.226562 5.53125 28.855469 5.953125 29.382812 6.480469 C 29.914062 7.011719 30.332031 7.640625 30.621094 8.332031 C 30.90625 9.023438 31.054688 9.765625 31.054688 10.515625 L 31.054688 28.949219 C 31.0625 29.589844 30.875 30.21875 30.519531 30.753906 C 30.160156 31.289062 29.652344 31.703125 29.058594 31.941406 C 28.65625 32.109375 28.222656 32.195312 27.789062 32.195312 Z M 11.65625 7.09375 C 10.75 7.09375 9.878906 7.453125 9.238281 8.09375 C 8.59375 8.738281 8.234375 9.609375 8.234375 10.515625 L 8.234375 28.949219 C 8.234375 29.136719 8.289062 29.324219 8.394531 29.484375 C 8.5 29.640625 8.648438 29.765625 8.824219 29.839844 C 9 29.910156 9.195312 29.929688 9.378906 29.894531 C 9.566406 29.859375 9.738281 29.765625 9.875 29.632812 L 17.703125 21.851562 C 17.917969 21.636719 18.207031 21.519531 18.507812 21.519531 C 18.8125 21.519531 19.101562 21.636719 19.3125 21.851562 L 27.136719 29.628906 C 27.269531 29.765625 27.441406 29.855469 27.628906 29.890625 C 27.816406 29.929688 28.007812 29.910156 28.183594 29.835938 C 28.359375 29.761719 28.507812 29.640625 28.613281 29.480469 C 28.71875 29.320312 28.777344 29.136719 28.773438 28.945312 L 28.773438 10.515625 C 28.773438 9.609375 28.414062 8.738281 27.773438 8.09375 C 27.128906 7.453125 26.257812 7.09375 25.351562 7.09375 Z M 11.65625 7.09375 " fill-opacity="0.97" fill-rule="nonzero"/></g></svg>