<svg xmlns="http://www.w3.org/2000/svg" xmlns:xlink="http://www.w3.org/1999/xlink" width="50" zoomAndPan="magnify" viewBox="0 0 37.5 37.499999" height="50" preserveAspectRatio="xMidYMid meet" version="1.0"><path fill="#000000" d="M 10.269531 20.871094 C 10.304688 19.796875 9.382812 19.886719 8.484375 19.945312 C 7.691406 20.035156 6.992188 19.863281 6.210938 20.152344 C 5.613281 20.5625 6.125 22.234375 6.003906 22.863281 C 6.039062 25.679688 5.636719 28.296875 5.855469 31.121094 C 6.023438 31.375 6.25 31.25 6.609375 31.257812 C 7.777344 31.207031 8.449219 31.160156 9.808594 31.035156 C 9.980469 30.984375 9.941406 31.128906 9.960938 30.859375 C 10.050781 29.667969 10.125 28.449219 10.183594 27.152344 C 10.285156 25.007812 10.320312 22.960938 10.269531 20.871094 Z M 8.90625 30.890625 C 8.238281 30.6875 6.144531 31.050781 6.40625 30.40625 C 6.519531 27.945312 6.222656 25.664062 6.21875 23.203125 C 6.21875 22.441406 6.234375 21.949219 6.265625 21.179688 C 6.328125 20.902344 6.152344 20.601562 6.515625 20.457031 C 7.460938 20.496094 8.464844 20.546875 9.472656 20.5625 C 9.632812 20.574219 9.585938 20.886719 9.585938 21.035156 C 9.503906 24.601562 9.691406 27.445312 9.90625 30.96875 Z M 8.90625 30.890625 " fill-opacity="1" fill-rule="nonzero"/><path fill="#000000" d="M 17.242188 19 C 17.328125 17.582031 16.796875 17.554688 15.457031 17.636719 C 14.601562 17.808594 13.632812 17.367188 12.988281 18.054688 C 12.785156 19.539062 13.09375 21.042969 12.96875 22.597656 C 12.859375 25.488281 12.660156 28.214844 12.851562 31.109375 C 12.96875 31.273438 13.074219 31.253906 13.226562 31.25 C 14.652344 31.195312 15.234375 31.144531 16.554688 31.046875 C 17.21875 31.125 16.851562 30.652344 16.980469 30.183594 C 17.191406 26.496094 17.328125 22.714844 17.242188 19 Z M 14.925781 30.832031 C 14.398438 30.664062 13.136719 31.070312 13.363281 30.390625 C 13.539062 26.304688 13 22.449219 13.265625 18.363281 C 13.332031 17.957031 14.300781 18.21875 14.6875 18.183594 C 15.339844 18.300781 16.347656 18.039062 16.574219 18.375 C 16.460938 22.605469 16.632812 26.617188 16.878906 30.96875 Z M 14.925781 30.832031 " fill-opacity="1" fill-rule="nonzero"/><path fill="#000000" d="M 24.136719 26.945312 C 24.023438 25.699219 24.148438 23.964844 23.847656 22.898438 C 23.761719 23.804688 23.699219 25.132812 23.664062 25.945312 C 23.246094 32.074219 24.859375 30.394531 20.230469 30.8125 C 20.035156 26.441406 20.433594 22.078125 20.425781 17.664062 C 20.578125 16.433594 20.09375 14.625 20.773438 14.8125 C 21.683594 14.890625 22.792969 14.578125 23.601562 14.851562 C 23.6875 16.167969 23.707031 17.5625 23.8125 18.910156 C 23.957031 21.058594 24.136719 15.226562 24.136719 15.511719 C 24.242188 14.554688 24.027344 14.125 23.101562 14.152344 C 21.652344 14.261719 19.640625 13.523438 19.703125 15.101562 C 19.679688 20.550781 19.976562 25.828125 19.972656 31.140625 C 21.351562 31.230469 22.761719 31.417969 24.105469 31.214844 C 24.410156 29.875 24.070312 28.367188 24.136719 26.945312 Z M 24.136719 26.945312 " fill-opacity="1" fill-rule="nonzero"/><path fill="#000000" d="M 31.203125 14.96875 C 31.003906 11.351562 31.917969 10.8125 29.058594 11.023438 C 28.617188 11.160156 26.902344 10.675781 26.859375 11.742188 C 27.117188 18.140625 26.511719 24.582031 26.824219 30.996094 C 26.859375 31.316406 27.246094 31.183594 27.75 31.183594 C 28.472656 31.164062 30.054688 31.070312 30.882812 31.019531 C 31.109375 25.855469 31.265625 20.277344 31.203125 14.96875 Z M 28.894531 30.863281 C 28.460938 30.835938 27.714844 30.804688 27.265625 30.785156 C 27.300781 29.65625 27.324219 28.394531 27.335938 27.234375 C 27.425781 23.816406 27.199219 20.421875 27.152344 17.058594 C 27.332031 9.855469 26.265625 11.703125 30.402344 11.5625 C 30.6875 11.621094 30.5 12.425781 30.546875 12.371094 C 30.421875 19.253906 30.574219 24.449219 30.832031 30.96875 Z M 28.894531 30.863281 " fill-opacity="1" fill-rule="nonzero"/><path fill="#000000" d="M 29.640625 6.921875 C 29.464844 6.671875 29.691406 6.152344 29.523438 5.875 C 28.308594 5.363281 26.285156 6.132812 29.113281 6.179688 C 18.527344 15.15625 13.066406 14.792969 6.105469 16.273438 C 9.570312 16.746094 13.558594 15.328125 16.722656 14.164062 C 22.160156 12.453125 26.027344 10.230469 29.390625 6.136719 C 29.464844 6.59375 29.0625 7.0625 29.3125 7.679688 C 29.417969 8.148438 29.699219 7.316406 29.640625 6.921875 Z M 29.640625 6.921875 " fill-opacity="1" fill-rule="nonzero"/></svg>