<svg xmlns="http://www.w3.org/2000/svg" xmlns:xlink="http://www.w3.org/1999/xlink" width="50" zoomAndPan="magnify" viewBox="0 0 37.5 37.499999" height="50" preserveAspectRatio="xMidYMid meet" version="1.0"><path fill="#000000" d="M 19.621094 9.621094 C 20.066406 9.84375 20.515625 10.125 20.960938 10.570312 C 20.960938 9.957031 20.625 9.34375 20.125 8.894531 C 19.621094 8.449219 18.949219 8.167969 18.28125 8.167969 C 17.609375 8.167969 16.9375 8.394531 16.4375 8.839844 C 15.933594 9.285156 15.597656 9.902344 15.597656 10.515625 C 16.492188 9.675781 17.386719 9.285156 18.335938 9.285156 C 18.726562 9.285156 19.171875 9.398438 19.621094 9.621094 Z M 19.621094 9.621094 " fill-opacity="1" fill-rule="nonzero"/><path fill="#000000" d="M 5.097656 15.710938 C 4.425781 17.21875 4.707031 19.117188 5.765625 20.347656 C 6.269531 20.960938 6.996094 21.464844 7.722656 21.742188 C 8.113281 21.910156 8.503906 21.964844 8.894531 21.964844 L 10.070312 21.964844 C 11.410156 21.910156 12.75 21.855469 14.089844 21.800781 C 14.089844 22.523438 14.035156 23.195312 14.035156 23.921875 C 14.035156 25.09375 14.089844 26.324219 14.144531 27.496094 C 14.203125 28.667969 14.371094 29.898438 14.59375 31.070312 C 14.816406 29.898438 14.929688 28.667969 15.039062 27.496094 C 15.039062 27.328125 15.039062 27.21875 15.039062 27.050781 C 15.542969 27.21875 16.046875 27.273438 16.546875 27.328125 C 17.21875 27.386719 17.832031 27.441406 18.503906 27.441406 C 19.171875 27.441406 19.789062 27.386719 20.457031 27.328125 C 20.960938 27.273438 21.464844 27.160156 21.964844 27.050781 L 21.964844 27.496094 C 22.023438 28.667969 22.191406 29.898438 22.414062 31.070312 C 22.636719 29.898438 22.75 28.667969 22.859375 27.496094 C 22.972656 26.324219 22.972656 25.09375 22.972656 23.921875 C 22.972656 23.195312 22.972656 22.523438 22.917969 21.800781 C 24.257812 21.855469 25.652344 21.910156 26.992188 21.964844 C 27.386719 21.964844 27.777344 22.023438 28.167969 21.964844 C 28.558594 21.910156 28.949219 21.855469 29.339844 21.6875 C 30.121094 21.40625 30.792969 20.90625 31.296875 20.289062 C 31.796875 19.675781 32.132812 18.839844 32.246094 18.054688 C 32.355469 17.21875 32.246094 16.378906 31.855469 15.597656 C 31.238281 14.203125 29.785156 13.140625 28.277344 12.972656 C 28.222656 12.527344 28.054688 12.078125 27.832031 11.6875 C 27.550781 11.1875 27.105469 10.738281 26.601562 10.402344 C 25.765625 9.84375 24.703125 9.675781 23.753906 9.84375 C 23.417969 8.894531 22.859375 8 22.078125 7.277344 C 21.183594 6.550781 20.011719 6.046875 18.78125 5.933594 C 17.554688 5.824219 16.324219 6.101562 15.261719 6.773438 C 14.371094 7.332031 13.644531 8.113281 13.140625 9.0625 C 12.636719 8.953125 12.136719 8.953125 11.578125 9.007812 C 10.90625 9.117188 10.292969 9.453125 9.734375 9.902344 C 9.230469 10.347656 8.839844 10.90625 8.617188 11.578125 C 8.449219 12.078125 8.394531 12.582031 8.449219 13.085938 C 6.996094 13.308594 5.710938 14.371094 5.097656 15.710938 Z M 21.855469 22.804688 C 21.40625 22.691406 20.90625 22.582031 20.457031 22.523438 C 19.789062 22.46875 19.171875 22.414062 18.503906 22.414062 C 17.832031 22.414062 17.21875 22.46875 16.546875 22.523438 C 16.101562 22.582031 15.597656 22.691406 15.152344 22.804688 C 15.152344 21.964844 15.097656 21.183594 15.039062 20.347656 C 15.039062 19.957031 14.984375 19.566406 14.929688 19.117188 C 15.488281 19.285156 15.988281 19.398438 16.546875 19.453125 C 17.21875 19.507812 17.832031 19.566406 18.503906 19.566406 C 19.171875 19.566406 19.789062 19.507812 20.457031 19.453125 C 21.015625 19.398438 21.519531 19.285156 22.078125 19.117188 C 22.023438 19.507812 22.023438 19.898438 21.964844 20.347656 C 21.910156 21.183594 21.855469 22.023438 21.855469 22.804688 Z M 20.457031 26.492188 C 19.789062 26.433594 19.171875 26.378906 18.503906 26.378906 C 17.832031 26.378906 17.21875 26.433594 16.546875 26.492188 C 16.046875 26.546875 15.542969 26.660156 15.097656 26.769531 C 15.152344 25.820312 15.152344 24.871094 15.207031 23.921875 C 15.207031 23.640625 15.207031 23.417969 15.207031 23.140625 C 15.65625 23.25 16.15625 23.363281 16.605469 23.417969 C 17.273438 23.476562 17.890625 23.53125 18.558594 23.53125 C 19.230469 23.53125 19.84375 23.476562 20.515625 23.417969 C 20.960938 23.363281 21.464844 23.25 21.910156 23.140625 L 21.910156 23.921875 C 21.910156 24.871094 21.964844 25.820312 22.023438 26.769531 C 21.40625 26.660156 20.960938 26.546875 20.457031 26.492188 Z M 9.0625 13.921875 L 9.117188 13.921875 C 9.34375 13.867188 9.511719 13.644531 9.453125 13.363281 C 9.34375 12.917969 9.398438 12.359375 9.566406 11.910156 C 9.734375 11.464844 10.011719 11.019531 10.402344 10.683594 C 10.792969 10.347656 11.242188 10.125 11.746094 10.070312 C 12.246094 10.011719 12.75 10.011719 13.195312 10.234375 C 13.476562 10.347656 13.753906 10.234375 13.867188 9.957031 C 14.257812 9.0625 14.929688 8.28125 15.765625 7.777344 C 16.605469 7.277344 17.609375 7.050781 18.613281 7.109375 C 19.621094 7.21875 20.570312 7.609375 21.296875 8.226562 C 22.023438 8.894531 22.582031 9.734375 22.804688 10.738281 L 22.804688 10.792969 C 22.917969 11.074219 23.195312 11.1875 23.476562 11.074219 C 24.257812 10.738281 25.207031 10.851562 25.933594 11.296875 C 26.660156 11.746094 27.160156 12.582031 27.21875 13.476562 C 27.21875 13.699219 27.441406 13.921875 27.664062 13.921875 C 29.003906 13.921875 30.34375 14.761719 30.960938 15.988281 C 31.296875 16.605469 31.40625 17.332031 31.351562 18 C 31.296875 18.671875 31.070312 19.398438 30.625 19.957031 C 30.234375 20.515625 29.621094 21.015625 28.949219 21.296875 C 28.613281 21.464844 28.277344 21.519531 27.886719 21.574219 C 27.550781 21.632812 27.160156 21.632812 26.769531 21.632812 C 25.429688 21.6875 24.035156 21.742188 22.691406 21.800781 C 22.691406 21.351562 22.636719 20.847656 22.636719 20.402344 C 22.582031 19.230469 22.414062 18 22.191406 16.828125 C 22.023438 17.554688 21.964844 18.28125 21.855469 19.007812 C 21.296875 18.839844 20.738281 18.726562 20.234375 18.671875 C 19.566406 18.613281 18.949219 18.558594 18.28125 18.558594 C 17.609375 18.558594 16.996094 18.613281 16.324219 18.671875 C 15.765625 18.726562 15.207031 18.839844 14.703125 19.007812 C 14.648438 18.28125 14.539062 17.554688 14.371094 16.828125 C 14.144531 18 14.035156 19.230469 13.921875 20.402344 C 13.867188 20.847656 13.867188 21.351562 13.867188 21.800781 C 12.527344 21.742188 11.1875 21.6875 9.84375 21.632812 C 9.453125 21.632812 9.0625 21.632812 8.726562 21.574219 C 8.394531 21.519531 8 21.464844 7.667969 21.296875 C 6.996094 21.015625 6.4375 20.570312 5.992188 20.011719 C 5.097656 18.894531 4.984375 17.273438 5.601562 16.046875 C 6.4375 14.816406 7.722656 13.921875 9.0625 13.921875 Z M 9.0625 13.921875 " fill-opacity="1" fill-rule="nonzero"/></svg>