<svg xmlns="http://www.w3.org/2000/svg" xmlns:xlink="http://www.w3.org/1999/xlink" width="50" zoomAndPan="magnify" viewBox="0 0 37.5 37.499999" height="50" preserveAspectRatio="xMidYMid meet" version="1.0"><path fill="#000000" d="M 5.410156 9.050781 C 5.75 9.28125 6.09375 9.394531 6.492188 9.449219 L 6.546875 9.449219 C 6.375 18.957031 6.375 24.652344 6.375 24.824219 C 6.375 25.621094 7.058594 26.417969 7.855469 26.585938 C 8.253906 26.644531 8.539062 26.585938 8.824219 26.585938 C 20.4375 26.644531 5.636719 26.585938 17.25 26.585938 C 16.625 27.328125 16 28.066406 15.429688 28.808594 C 14.574219 29.890625 13.777344 30.972656 13.039062 32.167969 C 14.121094 31.3125 15.144531 30.34375 16.113281 29.378906 C 16.964844 28.582031 17.761719 27.726562 18.503906 26.871094 C 19.300781 27.726562 20.097656 28.582031 20.894531 29.378906 C 21.863281 30.34375 22.886719 31.3125 23.96875 32.167969 C 23.230469 30.972656 22.433594 29.890625 21.578125 28.808594 C 21.007812 28.066406 20.382812 27.328125 19.753906 26.585938 L 28.183594 26.585938 C 28.464844 26.585938 28.695312 26.644531 29.148438 26.53125 C 29.945312 26.359375 30.574219 25.621094 30.628906 24.824219 C 30.628906 24.652344 30.628906 19.015625 30.460938 9.449219 L 30.515625 9.449219 C 30.914062 9.394531 31.257812 9.28125 31.597656 9.050781 C 32.222656 8.597656 32.621094 7.855469 32.621094 7.117188 C 32.621094 6.375 32.222656 5.636719 31.597656 5.238281 C 31.257812 5.011719 30.914062 4.894531 30.574219 4.894531 C 30.402344 4.894531 30.230469 4.894531 30.0625 4.894531 C 30.003906 4.894531 25.621094 5.011719 25.90625 5.011719 C 23.398438 5.011719 20.953125 5.066406 18.503906 5.179688 C 20.953125 5.292969 23.398438 5.351562 25.847656 5.464844 C 25.90625 5.464844 30.289062 5.578125 30.003906 5.578125 L 30.402344 5.578125 C 30.628906 5.636719 30.859375 5.691406 31.085938 5.863281 C 31.484375 6.148438 31.710938 6.605469 31.710938 7.058594 C 31.710938 7.515625 31.425781 7.96875 31.027344 8.199219 C 30.859375 8.3125 30.628906 8.371094 30.402344 8.425781 C 30.230469 8.425781 30.117188 8.425781 29.546875 8.425781 L 25.847656 8.371094 L 18.503906 8.371094 L 11.160156 8.425781 C 11.046875 8.425781 6.832031 8.484375 7.003906 8.484375 C 6.832031 8.484375 6.71875 8.484375 6.605469 8.484375 C 6.375 8.425781 6.148438 8.371094 5.921875 8.253906 C 5.523438 7.96875 5.292969 7.515625 5.292969 7.058594 C 5.292969 6.605469 5.523438 6.09375 5.921875 5.863281 C 6.09375 5.691406 6.320312 5.636719 6.546875 5.578125 C 6.71875 5.578125 6.832031 5.578125 7.402344 5.523438 L 11.101562 5.410156 C 13.550781 5.292969 16 5.238281 18.445312 5.125 C 16 5.011719 13.550781 4.953125 11.101562 4.839844 C 11.046875 4.839844 6.660156 4.726562 6.945312 4.726562 C 6.773438 4.726562 6.660156 4.726562 6.433594 4.726562 C 6.09375 4.839844 5.75 4.953125 5.464844 5.179688 C 4.839844 5.578125 4.382812 6.320312 4.382812 7.058594 C 4.382812 7.855469 4.78125 8.597656 5.410156 9.050781 Z M 29.605469 24.765625 C 29.605469 25.109375 29.320312 25.449219 28.921875 25.507812 C 28.808594 25.5625 28.410156 25.507812 28.183594 25.507812 L 27.328125 25.507812 C 16.167969 25.449219 20.324219 25.449219 8.824219 25.507812 C 8.539062 25.507812 8.199219 25.507812 8.085938 25.507812 C 7.6875 25.449219 7.402344 25.109375 7.402344 24.765625 C 7.34375 21.75 7.34375 17.535156 7.171875 9.449219 C 7.230469 9.449219 11.386719 9.507812 11.101562 9.507812 L 18.503906 9.507812 L 25.847656 9.449219 C 25.960938 9.449219 29.832031 9.394531 29.777344 9.394531 C 29.664062 17.535156 29.664062 21.917969 29.605469 24.765625 Z M 29.605469 24.765625 " fill-opacity="1" fill-rule="nonzero"/></svg>