<svg xmlns="http://www.w3.org/2000/svg" xmlns:xlink="http://www.w3.org/1999/xlink" width="50" zoomAndPan="magnify" viewBox="0 0 37.5 37.499999" height="50" preserveAspectRatio="xMidYMid meet" version="1.0"><defs><clipPath id="e379282427"><path d="M 4.941406 4.949219 L 31.941406 4.949219 L 31.941406 32.324219 L 4.941406 32.324219 Z M 4.941406 4.949219 " clip-rule="nonzero"/></clipPath></defs><g clip-path="url(#e379282427)"><path fill="#686868" d="M 24.066406 16.398438 C 19.726562 16.398438 16.191406 19.980469 16.191406 24.382812 C 16.191406 28.761719 19.726562 32.324219 24.066406 32.324219 C 28.40625 32.324219 31.941406 28.742188 31.941406 24.339844 C 31.941406 19.960938 28.40625 16.398438 24.066406 16.398438 Z M 24.066406 30.042969 C 20.964844 30.042969 18.441406 27.503906 18.441406 24.382812 C 18.441406 21.238281 20.964844 18.679688 24.066406 18.679688 C 27.167969 18.679688 29.691406 21.21875 29.691406 24.339844 C 29.691406 27.484375 27.167969 30.042969 24.066406 30.042969 Z M 25.988281 24.671875 C 26.425781 25.121094 26.425781 25.839844 25.988281 26.285156 C 25.765625 26.507812 25.480469 26.621094 25.191406 26.621094 C 24.902344 26.621094 24.613281 26.507812 24.394531 26.285156 L 23.269531 25.144531 C 23.058594 24.929688 22.941406 24.640625 22.941406 24.339844 L 22.941406 22.058594 C 22.941406 21.429688 23.445312 20.917969 24.066406 20.917969 C 24.6875 20.917969 25.191406 21.429688 25.191406 22.058594 L 25.191406 23.867188 Z M 31.941406 12.933594 L 31.941406 15.214844 C 31.941406 15.84375 31.4375 16.355469 30.816406 16.355469 C 30.195312 16.355469 29.691406 15.84375 29.691406 15.214844 L 29.691406 12.933594 C 29.691406 11.046875 28.175781 9.511719 26.316406 9.511719 L 10.566406 9.511719 C 8.707031 9.511719 7.191406 11.046875 7.191406 12.933594 L 7.191406 14.074219 L 17.316406 14.074219 C 17.9375 14.074219 18.441406 14.585938 18.441406 15.214844 C 18.441406 15.84375 17.9375 16.355469 17.316406 16.355469 L 7.191406 16.355469 L 7.191406 26.621094 C 7.191406 28.507812 8.707031 30.042969 10.566406 30.042969 L 15.066406 30.042969 C 15.6875 30.042969 16.191406 30.554688 16.191406 31.183594 C 16.191406 31.8125 15.6875 32.324219 15.066406 32.324219 L 10.566406 32.324219 C 7.464844 32.324219 4.941406 29.765625 4.941406 26.621094 L 4.941406 12.933594 C 4.941406 9.789062 7.464844 7.230469 10.566406 7.230469 L 11.691406 7.230469 L 11.691406 6.089844 C 11.691406 5.457031 12.195312 4.949219 12.816406 4.949219 C 13.4375 4.949219 13.941406 5.457031 13.941406 6.089844 L 13.941406 7.230469 L 22.941406 7.230469 L 22.941406 6.089844 C 22.941406 5.457031 23.445312 4.949219 24.066406 4.949219 C 24.6875 4.949219 25.191406 5.457031 25.191406 6.089844 L 25.191406 7.230469 L 26.316406 7.230469 C 29.417969 7.230469 31.941406 9.789062 31.941406 12.933594 Z M 31.941406 12.933594 " fill-opacity="1" fill-rule="nonzero"/></g></svg>