<svg xmlns="http://www.w3.org/2000/svg" xmlns:xlink="http://www.w3.org/1999/xlink" width="50" zoomAndPan="magnify" viewBox="0 0 37.5 37.499999" height="50" preserveAspectRatio="xMidYMid meet" version="1.0"><defs><clipPath id="a6586d242b"><path d="M 0 0 L 37.007812 0 L 37.007812 37.007812 L 0 37.007812 Z M 0 0 " clip-rule="nonzero"/></clipPath></defs><g clip-path="url(#a6586d242b)"><path fill="#686868" d="M 22.945312 34.671875 C 25.628906 33.9375 28.042969 32.550781 30.007812 30.695312 C 28.734375 30.148438 27.335938 29.6875 25.839844 29.332031 C 25.597656 30.039062 25.328125 30.707031 25.039062 31.332031 C 24.433594 32.648438 23.726562 33.777344 22.945312 34.671875 Z M 31.269531 29.367188 C 33.585938 26.648438 35.050781 23.175781 35.246094 19.367188 L 27.496094 19.367188 C 27.429688 22.378906 27.019531 25.210938 26.351562 27.671875 C 28.125 28.105469 29.78125 28.675781 31.269531 29.367188 Z M 24.128906 28.976562 C 22.617188 28.710938 21.019531 28.550781 19.367188 28.507812 L 19.367188 35.140625 C 20.914062 34.6875 22.347656 33.039062 23.46875 30.609375 C 23.703125 30.097656 23.925781 29.550781 24.128906 28.976562 Z M 17.632812 28.507812 C 15.980469 28.550781 14.382812 28.710938 12.867188 28.976562 C 13.074219 29.550781 13.292969 30.097656 13.53125 30.609375 C 14.652344 33.039062 16.082031 34.6875 17.632812 35.140625 Z M 11.160156 29.332031 C 9.660156 29.6875 8.265625 30.148438 6.992188 30.695312 C 8.957031 32.550781 11.371094 33.9375 14.054688 34.671875 C 13.269531 33.777344 12.566406 32.648438 11.960938 31.332031 C 11.671875 30.707031 11.402344 30.039062 11.160156 29.332031 Z M 5.730469 29.371094 C 7.21875 28.679688 8.875 28.105469 10.648438 27.675781 C 9.976562 25.210938 9.570312 22.382812 9.503906 19.367188 L 1.753906 19.367188 C 1.949219 23.175781 3.414062 26.648438 5.730469 29.371094 Z M 12.347656 27.3125 C 14.027344 27.003906 15.800781 26.820312 17.632812 26.773438 L 17.632812 19.367188 L 11.238281 19.367188 C 11.304688 22.269531 11.699219 24.976562 12.347656 27.3125 Z M 19.367188 26.773438 C 21.203125 26.820312 22.976562 27.003906 24.65625 27.3125 C 25.300781 24.976562 25.699219 22.269531 25.765625 19.367188 L 19.367188 19.367188 Z M 22.945312 2.328125 C 23.730469 3.222656 24.433594 4.347656 25.042969 5.664062 C 25.328125 6.289062 25.597656 6.960938 25.84375 7.667969 C 27.339844 7.3125 28.738281 6.851562 30.007812 6.300781 C 28.042969 4.445312 25.628906 3.0625 22.945312 2.328125 Z M 26.351562 9.324219 C 27.023438 11.789062 27.433594 14.617188 27.496094 17.632812 L 35.246094 17.632812 C 35.054688 13.824219 33.589844 10.351562 31.269531 7.628906 C 29.78125 8.320312 28.128906 8.894531 26.351562 9.324219 Z M 9.503906 17.632812 C 9.570312 14.617188 9.980469 11.789062 10.648438 9.324219 C 8.871094 8.894531 7.21875 8.320312 5.730469 7.628906 C 3.410156 10.351562 1.949219 13.824219 1.753906 17.632812 Z M 11.160156 7.667969 C 11.402344 6.960938 11.671875 6.289062 11.960938 5.664062 C 12.566406 4.347656 13.273438 3.222656 14.054688 2.328125 C 11.371094 3.0625 8.960938 4.445312 6.996094 6.300781 C 8.265625 6.851562 9.664062 7.3125 11.160156 7.667969 Z M 23.472656 6.390625 C 22.347656 3.960938 20.917969 2.3125 19.367188 1.855469 L 19.367188 8.488281 C 21.019531 8.449219 22.617188 8.285156 24.132812 8.019531 C 23.929688 7.445312 23.707031 6.902344 23.472656 6.390625 Z M 17.636719 1.855469 C 16.085938 2.3125 14.652344 3.960938 13.53125 6.390625 C 13.296875 6.902344 13.074219 7.445312 12.871094 8.019531 C 14.386719 8.285156 15.980469 8.449219 17.636719 8.488281 Z M 12.347656 9.683594 C 11.703125 12.019531 11.304688 14.726562 11.238281 17.632812 L 17.636719 17.632812 L 17.636719 10.222656 C 15.800781 10.179688 14.027344 9.996094 12.347656 9.683594 Z M 25.765625 17.632812 C 25.699219 14.730469 25.300781 12.019531 24.65625 9.683594 C 22.976562 9.992188 21.203125 10.179688 19.367188 10.222656 L 19.367188 17.632812 Z M 31.585938 31.582031 C 28.238281 34.929688 23.609375 37.003906 18.503906 37.003906 C 13.390625 37.003906 8.765625 34.929688 5.417969 31.582031 C 2.070312 28.234375 0 23.609375 0 18.5 C 0 13.390625 2.070312 8.761719 5.417969 5.414062 C 8.765625 2.066406 13.390625 -0.00390625 18.503906 -0.00390625 C 23.609375 -0.00390625 28.238281 2.066406 31.585938 5.414062 C 34.933594 8.765625 37.003906 13.390625 37.003906 18.5 C 37.003906 23.609375 34.933594 28.234375 31.585938 31.582031 Z M 31.585938 31.582031 " fill-opacity="1" fill-rule="nonzero"/></g></svg>