<svg xmlns="http://www.w3.org/2000/svg" xmlns:xlink="http://www.w3.org/1999/xlink" width="50" zoomAndPan="magnify" viewBox="0 0 37.5 37.499999" height="50" preserveAspectRatio="xMidYMid meet" version="1.0"><defs><clipPath id="593d91bb76"><path d="M 4.828125 5.167969 L 32.210938 5.167969 L 32.210938 31.8125 L 4.828125 31.8125 Z M 4.828125 5.167969 " clip-rule="nonzero"/></clipPath></defs><path fill="#7c7c7c" d="M 20.910156 10.261719 L 20.910156 10.660156 C 20.902344 10.859375 20.722656 11.019531 20.507812 11.003906 C 20.300781 11 20.136719 10.847656 20.136719 10.660156 L 20.136719 9.882812 C 20.128906 9.683594 20.296875 9.519531 20.507812 9.511719 C 20.722656 9.511719 20.894531 9.664062 20.910156 9.855469 Z M 20.910156 10.261719 " fill-opacity="1" fill-rule="nonzero"/><path fill="#7c7c7c" d="M 25.800781 9.882812 L 25.800781 10.660156 C 25.792969 10.859375 25.613281 11.019531 25.398438 11.003906 C 25.199219 11 25.035156 10.847656 25.027344 10.660156 L 25.027344 9.882812 C 25.019531 9.683594 25.183594 9.519531 25.398438 9.511719 C 25.613281 9.511719 25.792969 9.664062 25.800781 9.855469 Z M 25.800781 9.882812 " fill-opacity="1" fill-rule="nonzero"/><path fill="#7c7c7c" d="M 27.507812 11.328125 L 27.507812 11.878906 L 18.425781 11.878906 L 18.425781 11.328125 C 18.425781 10.875 18.828125 10.503906 19.308594 10.503906 L 19.625 10.503906 L 19.625 10.660156 C 19.640625 11.121094 20.039062 11.480469 20.539062 11.472656 C 21.011719 11.464844 21.398438 11.109375 21.414062 10.660156 L 21.414062 10.503906 L 24.515625 10.503906 L 24.515625 10.660156 C 24.53125 11.121094 24.929688 11.480469 25.425781 11.472656 C 25.902344 11.464844 26.289062 11.109375 26.300781 10.660156 L 26.300781 10.503906 L 26.621094 10.503906 C 27.109375 10.503906 27.503906 10.875 27.503906 11.328125 Z M 27.507812 11.328125 " fill-opacity="1" fill-rule="nonzero"/><path fill="#7c7c7c" d="M 18.433594 12.347656 L 18.433594 18.117188 C 18.433594 18.570312 18.832031 18.941406 19.316406 18.941406 L 26.625 18.941406 C 27.117188 18.941406 27.507812 18.570312 27.507812 18.117188 L 27.507812 12.347656 L 18.425781 12.347656 Z M 25.171875 15.390625 L 24.253906 16.222656 L 24.476562 17.394531 C 24.496094 17.523438 24.40625 17.640625 24.269531 17.667969 C 24.210938 17.675781 24.15625 17.667969 24.109375 17.640625 L 22.972656 17.089844 L 21.839844 17.640625 C 21.714844 17.703125 21.566406 17.65625 21.496094 17.546875 C 21.46875 17.496094 21.460938 17.449219 21.476562 17.394531 L 21.6875 16.222656 L 20.773438 15.390625 C 20.667969 15.300781 20.667969 15.148438 20.765625 15.058594 C 20.804688 15.027344 20.859375 14.996094 20.910156 14.992188 L 22.179688 14.820312 L 22.742188 13.746094 C 22.804688 13.628906 22.957031 13.578125 23.089844 13.640625 C 23.136719 13.664062 23.179688 13.703125 23.199219 13.746094 L 23.765625 14.820312 L 25.035156 14.992188 C 25.171875 15.011719 25.269531 15.128906 25.246094 15.253906 C 25.242188 15.308594 25.210938 15.355469 25.171875 15.390625 Z M 25.171875 15.390625 " fill-opacity="1" fill-rule="nonzero"/><path fill="#7c7c7c" d="M 23.738281 16.183594 L 23.890625 17.007812 L 23.089844 16.617188 C 23.011719 16.582031 22.929688 16.582031 22.855469 16.617188 L 22.054688 17.007812 L 22.214844 16.183594 C 22.226562 16.105469 22.199219 16.03125 22.136719 15.976562 L 21.488281 15.390625 L 22.386719 15.273438 C 22.46875 15.257812 22.535156 15.210938 22.578125 15.140625 L 22.976562 14.390625 L 23.378906 15.140625 C 23.414062 15.210938 23.488281 15.257812 23.570312 15.273438 L 24.460938 15.390625 L 23.8125 15.976562 C 23.757812 16.03125 23.730469 16.105469 23.742188 16.183594 Z M 23.738281 16.183594 " fill-opacity="1" fill-rule="nonzero"/><path fill="#7c7c7c" d="M 15.128906 20.9375 L 14.488281 23.121094 L 14.332031 23.121094 L 13.6875 20.9375 C 14.15625 21.070312 14.65625 21.070312 15.125 20.9375 Z M 15.128906 20.9375 " fill-opacity="1" fill-rule="nonzero"/><path fill="#7c7c7c" d="M 19.695312 23.082031 L 19.695312 27.066406 L 18.269531 27.066406 L 18.269531 25.152344 C 18.269531 25.023438 18.15625 24.917969 18.011719 24.917969 C 17.867188 24.917969 17.757812 25.023438 17.757812 25.152344 L 17.757812 27.066406 L 11.046875 27.066406 L 11.046875 25.152344 C 11.046875 25.023438 10.9375 24.917969 10.792969 24.917969 C 10.648438 24.917969 10.539062 25.023438 10.539062 25.152344 L 10.539062 27.066406 L 9.109375 27.066406 L 9.109375 23.082031 C 9.109375 21.523438 10.613281 20.257812 12.488281 20.203125 C 12.65625 20.386719 12.863281 20.554688 13.082031 20.683594 L 13.828125 23.21875 C 13.082031 23.515625 12.738281 24.3125 13.054688 25 C 13.371094 25.691406 14.226562 26.011719 14.972656 25.722656 C 15.714844 25.433594 16.070312 24.636719 15.75 23.941406 C 15.605469 23.617188 15.324219 23.355469 14.972656 23.21875 L 15.714844 20.683594 C 15.945312 20.554688 16.144531 20.386719 16.308594 20.203125 C 18.183594 20.25 19.6875 21.523438 19.6875 23.082031 Z M 19.695312 23.082031 " fill-opacity="1" fill-rule="nonzero"/><path fill="#7c7c7c" d="M 16.433594 15.777344 L 16.433594 16.898438 C 16.433594 17.957031 15.511719 18.820312 14.363281 18.820312 C 14.007812 18.820312 13.65625 18.730469 13.34375 18.570312 C 13.324219 18.550781 13.304688 18.535156 13.277344 18.53125 C 12.667969 18.179688 12.304688 17.566406 12.304688 16.90625 L 12.304688 15.734375 C 12.304688 15.527344 12.40625 15.328125 12.578125 15.203125 C 12.890625 14.984375 13.199219 14.875 13.503906 14.875 C 13.558594 14.875 13.613281 14.875 13.660156 14.886719 C 14.269531 14.96875 14.667969 15.480469 14.667969 15.480469 C 14.75 15.582031 14.910156 15.605469 15.019531 15.535156 C 15.039062 15.519531 15.054688 15.507812 15.070312 15.488281 C 15.308594 15.210938 15.558594 15.09375 15.832031 15.128906 C 16.179688 15.183594 16.425781 15.460938 16.425781 15.78125 Z M 16.433594 15.777344 " fill-opacity="1" fill-rule="nonzero"/><path fill="#7c7c7c" d="M 16.507812 14.910156 C 16.34375 14.777344 16.136719 14.6875 15.921875 14.652344 C 15.65625 14.613281 15.273438 14.652344 14.890625 14.976562 C 14.667969 14.769531 14.269531 14.480469 13.746094 14.40625 C 13.261719 14.335938 12.773438 14.46875 12.308594 14.796875 L 12.308594 13.675781 C 12.308594 13.140625 12.777344 12.707031 13.351562 12.707031 L 14.234375 12.707031 C 14.496094 12.707031 14.714844 12.90625 14.714844 13.160156 C 14.714844 13.234375 14.695312 13.3125 14.660156 13.375 C 14.59375 13.484375 14.640625 13.628906 14.765625 13.691406 C 14.820312 13.71875 14.882812 13.722656 14.945312 13.710938 C 14.953125 13.710938 15.683594 13.550781 16.128906 13.953125 C 16.363281 14.152344 16.488281 14.480469 16.507812 14.910156 Z M 16.507812 14.910156 " fill-opacity="1" fill-rule="nonzero"/><path fill="#7c7c7c" d="M 15.371094 24.476562 C 15.371094 24.964844 14.945312 25.367188 14.414062 25.367188 C 13.882812 25.367188 13.453125 24.964844 13.453125 24.476562 C 13.453125 24.066406 13.765625 23.707031 14.199219 23.609375 L 14.214844 23.609375 C 14.34375 23.582031 14.476562 23.582031 14.597656 23.609375 C 14.597656 23.609375 14.613281 23.609375 14.621094 23.609375 C 15.054688 23.699219 15.363281 24.066406 15.363281 24.476562 Z M 15.371094 24.476562 " fill-opacity="1" fill-rule="nonzero"/><path fill="#7c7c7c" d="M 15.828125 20.011719 C 15.703125 20.132812 15.558594 20.238281 15.398438 20.320312 L 15.371094 20.332031 C 14.777344 20.644531 14.046875 20.644531 13.449219 20.332031 L 13.425781 20.320312 C 13.269531 20.238281 13.125 20.132812 13 20.011719 C 13.277344 19.761719 13.378906 19.398438 13.421875 19.113281 C 14.054688 19.347656 14.765625 19.34375 15.390625 19.085938 C 15.441406 19.375 15.550781 19.753906 15.828125 20.003906 Z M 15.828125 20.011719 " fill-opacity="1" fill-rule="nonzero"/><g clip-path="url(#593d91bb76)"><path fill="#7c7c7c" d="M 27.324219 5.1875 L 9.71875 5.1875 C 7.027344 5.1875 4.828125 7.328125 4.828125 9.9375 L 4.828125 27.046875 C 4.828125 29.660156 7.027344 31.796875 9.71875 31.796875 L 27.324219 31.796875 C 30.011719 31.796875 32.210938 29.65625 32.210938 27.046875 L 32.210938 9.9375 C 32.210938 7.320312 30.011719 5.1875 27.324219 5.1875 Z M 29.9375 26.371094 C 29.9375 28.195312 28.398438 29.691406 26.523438 29.691406 L 10.304688 29.691406 C 8.425781 29.691406 6.890625 28.195312 6.890625 26.371094 L 6.890625 10.613281 C 6.890625 8.789062 8.425781 7.292969 10.304688 7.292969 L 26.523438 7.292969 C 28.398438 7.292969 29.9375 8.789062 29.9375 10.613281 Z M 29.9375 26.371094 " fill-opacity="1" fill-rule="nonzero"/></g></svg>