<svg xmlns="http://www.w3.org/2000/svg" xmlns:xlink="http://www.w3.org/1999/xlink" width="50" zoomAndPan="magnify" viewBox="0 0 37.5 37.499999" height="50" preserveAspectRatio="xMidYMid meet" version="1.0"><defs><clipPath id="1fe8811d06"><path d="M 5.03125 5.03125 L 31.675781 5.03125 L 31.675781 31.675781 L 5.03125 31.675781 Z M 5.03125 5.03125 " clip-rule="nonzero"/></clipPath></defs><g clip-path="url(#1fe8811d06)"><path fill="#686868" d="M 31.675781 16.136719 C 31.675781 16.054688 31.667969 15.972656 31.652344 15.894531 L 30.207031 9.378906 C 29.941406 8.144531 29.253906 7.035156 28.265625 6.246094 C 27.28125 5.453125 26.050781 5.027344 24.785156 5.03125 L 11.925781 5.03125 C 10.660156 5.027344 9.433594 5.453125 8.445312 6.246094 C 7.460938 7.039062 6.773438 8.144531 6.507812 9.378906 L 5.058594 15.894531 C 5.042969 15.972656 5.03125 16.054688 5.03125 16.136719 L 5.03125 17.246094 C 5.03125 18.324219 5.425781 19.371094 6.144531 20.179688 L 6.144531 26.125 C 6.144531 27.597656 6.730469 29.007812 7.769531 30.050781 C 8.8125 31.089844 10.222656 31.675781 11.695312 31.679688 L 25.015625 31.679688 C 26.488281 31.675781 27.898438 31.089844 28.941406 30.050781 C 29.980469 29.007812 30.566406 27.597656 30.566406 26.125 L 30.566406 20.179688 C 31.285156 19.371094 31.679688 18.324219 31.675781 17.246094 Z M 7.253906 16.257812 L 8.675781 9.859375 C 8.835938 9.121094 9.246094 8.457031 9.835938 7.980469 C 10.429688 7.507812 11.167969 7.25 11.925781 7.253906 L 12.804688 7.253906 L 12.804688 10.582031 C 12.804688 10.878906 12.921875 11.160156 13.128906 11.367188 C 13.335938 11.578125 13.621094 11.695312 13.914062 11.695312 C 14.207031 11.695312 14.492188 11.578125 14.699219 11.367188 C 14.90625 11.160156 15.023438 10.878906 15.023438 10.582031 L 15.023438 7.253906 L 21.6875 7.253906 L 21.6875 10.582031 C 21.6875 10.878906 21.804688 11.160156 22.011719 11.367188 C 22.21875 11.578125 22.5 11.695312 22.796875 11.695312 C 23.089844 11.695312 23.371094 11.578125 23.582031 11.367188 C 23.789062 11.160156 23.90625 10.878906 23.90625 10.582031 L 23.90625 7.253906 L 24.785156 7.253906 C 25.542969 7.25 26.28125 7.507812 26.871094 7.980469 C 27.464844 8.457031 27.875 9.121094 28.035156 9.859375 L 29.457031 16.257812 L 29.457031 17.246094 C 29.457031 17.835938 29.222656 18.398438 28.808594 18.816406 C 28.390625 19.230469 27.824219 19.464844 27.238281 19.464844 L 26.125 19.464844 C 25.539062 19.464844 24.972656 19.230469 24.554688 18.816406 C 24.140625 18.398438 23.90625 17.835938 23.90625 17.246094 C 23.90625 16.949219 23.789062 16.667969 23.582031 16.460938 C 23.371094 16.25 23.089844 16.136719 22.796875 16.136719 C 22.5 16.136719 22.21875 16.25 22.011719 16.460938 C 21.804688 16.667969 21.6875 16.949219 21.6875 17.246094 C 21.6875 17.835938 21.453125 18.398438 21.035156 18.816406 C 20.617188 19.230469 20.054688 19.464844 19.464844 19.464844 L 17.246094 19.464844 C 16.65625 19.464844 16.089844 19.230469 15.675781 18.816406 C 15.257812 18.398438 15.023438 17.835938 15.023438 17.246094 C 15.023438 16.949219 14.90625 16.667969 14.699219 16.460938 C 14.492188 16.25 14.207031 16.136719 13.914062 16.136719 C 13.621094 16.136719 13.335938 16.25 13.128906 16.460938 C 12.921875 16.667969 12.804688 16.949219 12.804688 17.246094 C 12.804688 17.835938 12.570312 18.398438 12.152344 18.816406 C 11.738281 19.230469 11.171875 19.464844 10.582031 19.464844 L 9.472656 19.464844 C 8.886719 19.464844 8.320312 19.230469 7.902344 18.816406 C 7.488281 18.398438 7.253906 17.835938 7.253906 17.246094 Z M 25.015625 29.457031 L 11.695312 29.457031 C 10.8125 29.457031 9.964844 29.105469 9.339844 28.480469 C 8.714844 27.855469 8.363281 27.011719 8.363281 26.125 L 8.363281 21.546875 C 8.726562 21.640625 9.097656 21.6875 9.472656 21.6875 L 10.582031 21.6875 C 11.214844 21.6875 11.835938 21.550781 12.410156 21.292969 C 12.984375 21.03125 13.5 20.652344 13.914062 20.179688 C 14.332031 20.652344 14.84375 21.03125 15.417969 21.292969 C 15.992188 21.550781 16.613281 21.6875 17.246094 21.6875 L 19.464844 21.6875 C 20.097656 21.6875 20.71875 21.550781 21.292969 21.292969 C 21.867188 21.03125 22.378906 20.652344 22.796875 20.179688 C 23.210938 20.652344 23.722656 21.03125 24.296875 21.292969 C 24.871094 21.550781 25.496094 21.6875 26.125 21.6875 L 27.238281 21.6875 C 27.613281 21.6875 27.984375 21.640625 28.347656 21.546875 L 28.347656 26.125 C 28.347656 27.011719 27.996094 27.855469 27.371094 28.480469 C 26.746094 29.105469 25.898438 29.457031 25.015625 29.457031 Z M 25.015625 29.457031 " fill-opacity="1" fill-rule="nonzero"/></g></svg>