<svg xmlns="http://www.w3.org/2000/svg" xmlns:xlink="http://www.w3.org/1999/xlink" width="50" zoomAndPan="magnify" viewBox="0 0 37.5 37.499999" height="50" preserveAspectRatio="xMidYMid meet" version="1.0"><path fill="#000000" d="M 28.691406 30.085938 C 27.253906 29.867188 24.992188 29.691406 24.597656 29.691406 C 25.207031 29.300781 25.816406 28.820312 26.339844 28.34375 C 29.34375 25.644531 30.867188 22.074219 30.910156 18.285156 C 30.953125 14.496094 29.300781 10.710938 26.382812 8.273438 C 24.292969 6.488281 21.464844 5.355469 17.371094 5.355469 C 10.144531 5.355469 4.222656 11.234375 4.222656 18.460938 C 4.222656 23.683594 7.3125 28.210938 11.753906 30.34375 C 11.539062 30.34375 11.320312 30.390625 11.058594 30.519531 C 10.882812 30.605469 10.492188 30.738281 10.492188 30.953125 C 10.492188 32.695312 31.214844 32.738281 31.214844 30.953125 C 31.171875 30.300781 29.082031 30.128906 28.691406 30.085938 Z M 26.730469 25.992188 C 25.773438 26.644531 24.335938 26.992188 23.160156 26.601562 C 23.03125 21.726562 19.242188 15.152344 14.671875 13.757812 C 14.367188 12.277344 14.671875 10.667969 15.5 9.359375 C 23.074219 12.40625 27.167969 17.371094 26.730469 25.992188 Z M 20.765625 6.488281 C 25.992188 7.96875 29.824219 12.757812 29.824219 18.460938 C 29.824219 20.722656 29.082031 23.988281 27.386719 25.46875 C 27.558594 16.9375 23.554688 11.929688 15.847656 8.792969 C 17.066406 7.269531 19.027344 6.398438 20.765625 6.488281 Z M 18.808594 6.09375 C 15.238281 7.097656 13.234375 10.667969 14.0625 14.105469 C 12.929688 15.0625 11.625 15.890625 10.230469 16.542969 C 9.96875 13.234375 11.144531 9.273438 13.234375 6.75 C 15.019531 6.09375 16.890625 5.878906 18.808594 6.09375 Z M 7.878906 10.363281 C 9.011719 9.011719 10.449219 7.921875 12.058594 7.183594 C 10.230469 9.925781 9.273438 13.582031 9.621094 16.804688 C 8.75 17.152344 7.878906 17.457031 7.007812 17.675781 C 6.488281 16.066406 7.097656 12.710938 7.878906 10.363281 Z M 6.75 11.929688 C 6.226562 14.0625 5.964844 16.414062 6.355469 17.808594 C 5.878906 17.894531 5.398438 17.980469 4.875 18.023438 C 5.007812 15.804688 5.660156 13.714844 6.75 11.929688 Z M 4.917969 18.675781 C 8.230469 18.371094 11.972656 16.761719 14.671875 14.453125 C 15.71875 14.847656 17.546875 15.976562 18.808594 17.5 C 14.324219 21.070312 10.058594 23.117188 6.050781 23.640625 C 5.355469 22.117188 4.917969 20.460938 4.917969 18.675781 Z M 9.492188 28.125 C 8.230469 27.082031 7.140625 25.773438 6.355469 24.292969 C 10.40625 23.683594 14.757812 21.59375 19.199219 18.023438 C 20.027344 19.113281 20.8125 20.460938 21.375 21.898438 C 16.585938 27.386719 9.707031 27.863281 9.492188 28.125 Z M 14.714844 30.648438 C 13.019531 30.300781 11.449219 29.5625 10.101562 28.605469 C 14.585938 27.863281 18.851562 25.601562 21.636719 22.550781 C 22.507812 24.902344 22.421875 26.296875 22.507812 26.992188 C 19.417969 30.214844 14.976562 30.519531 14.714844 30.648438 Z M 16.71875 30.910156 C 19.285156 30.257812 21.59375 28.953125 23.117188 27.296875 C 24.25 27.558594 25.730469 27.296875 26.644531 26.773438 C 24.164062 29.5625 20.550781 31.128906 16.71875 30.910156 Z M 16.71875 30.910156 " fill-opacity="1" fill-rule="nonzero"/><path fill="#000000" d="M 30.78125 5.3125 C 30.910156 5.179688 30.910156 4.964844 30.78125 4.832031 C 30.648438 4.703125 30.433594 4.703125 30.300781 4.832031 C 28.953125 6.140625 28.777344 6.355469 27.386719 7.617188 C 27.253906 7.75 27.253906 7.96875 27.386719 8.097656 C 27.515625 8.230469 27.734375 8.230469 27.863281 8.097656 C 29.257812 6.792969 29.429688 6.574219 30.78125 5.3125 Z M 30.78125 5.3125 " fill-opacity="1" fill-rule="nonzero"/><path fill="#000000" d="M 29.734375 9.535156 C 30.5625 9.054688 30.648438 8.96875 31.5625 8.445312 C 31.738281 8.359375 31.78125 8.140625 31.695312 8.011719 C 31.609375 7.835938 31.390625 7.792969 31.257812 7.878906 C 30.34375 8.402344 30.300781 8.445312 29.386719 8.96875 C 29.214844 9.054688 29.167969 9.273438 29.257812 9.402344 C 29.34375 9.578125 29.5625 9.621094 29.734375 9.535156 Z M 29.734375 9.535156 " fill-opacity="1" fill-rule="nonzero"/><path fill="#000000" d="M 32.304688 10.492188 C 31.476562 10.839844 31.171875 10.929688 30.34375 11.277344 C 30.171875 11.363281 30.085938 11.539062 30.171875 11.710938 C 30.257812 11.886719 30.433594 11.972656 30.605469 11.886719 C 31.433594 11.539062 31.738281 11.449219 32.566406 11.101562 C 32.738281 11.015625 32.828125 10.839844 32.738281 10.667969 C 32.652344 10.492188 32.480469 10.40625 32.304688 10.492188 Z M 32.304688 10.492188 " fill-opacity="1" fill-rule="nonzero"/></svg>