<svg xmlns="http://www.w3.org/2000/svg" xmlns:xlink="http://www.w3.org/1999/xlink" width="50" zoomAndPan="magnify" viewBox="0 0 37.5 37.499999" height="50" preserveAspectRatio="xMidYMid meet" version="1.0"><path fill="#000000" d="M 33.910156 21.21875 C 33.914062 20.910156 33.886719 20.648438 33.851562 20.433594 C 33.792969 20.007812 33.753906 19.792969 33.730469 19.792969 C 33.707031 19.800781 33.703125 20.023438 33.714844 20.441406 C 33.726562 20.652344 33.734375 20.910156 33.707031 21.21875 C 33.6875 21.523438 33.6875 21.878906 33.613281 22.269531 C 33.527344 23.054688 33.277344 24.003906 32.839844 25.027344 C 32.390625 26.050781 31.703125 27.152344 30.695312 28.140625 C 29.695312 29.121094 28.382812 30.011719 26.800781 30.507812 C 25.222656 30.988281 23.398438 31.15625 21.59375 30.703125 C 21.136719 30.617188 20.695312 30.441406 20.25 30.292969 C 19.820312 30.09375 19.371094 29.917969 18.957031 29.660156 C 18.121094 29.179688 17.324219 28.570312 16.652344 27.824219 C 15.976562 27.085938 15.371094 26.253906 14.9375 25.308594 C 14.503906 24.371094 14.203125 23.359375 14.050781 22.304688 C 13.929688 21.253906 13.957031 20.199219 14.140625 19.179688 C 14.3125 18.160156 14.691406 17.203125 15.152344 16.316406 C 15.613281 15.425781 16.222656 14.636719 16.914062 13.960938 C 17.246094 13.609375 17.632812 13.324219 18 13.023438 C 18.398438 12.765625 18.773438 12.484375 19.195312 12.289062 C 20.828125 11.398438 22.636719 11.101562 24.285156 11.171875 C 25.941406 11.253906 27.441406 11.789062 28.664062 12.484375 C 29.886719 13.1875 30.835938 14.082031 31.535156 14.957031 C 32.222656 15.84375 32.710938 16.691406 32.992188 17.4375 C 33.164062 17.796875 33.257812 18.136719 33.355469 18.425781 C 33.460938 18.71875 33.519531 18.96875 33.5625 19.175781 C 33.660156 19.585938 33.722656 19.800781 33.746094 19.792969 C 33.769531 19.789062 33.75 19.570312 33.695312 19.148438 C 33.671875 18.933594 33.632812 18.675781 33.550781 18.375 C 33.476562 18.074219 33.398438 17.71875 33.246094 17.339844 C 32.988281 16.566406 32.523438 15.671875 31.835938 14.730469 C 31.144531 13.792969 30.179688 12.839844 28.914062 12.074219 C 27.652344 11.316406 26.082031 10.726562 24.328125 10.617188 C 22.585938 10.515625 20.664062 10.804688 18.914062 11.742188 C 18.589844 11.894531 18.289062 12.089844 17.984375 12.289062 C 17.957031 12.273438 17.933594 12.261719 17.898438 12.246094 C 17.632812 12.125 17.234375 11.96875 16.695312 11.820312 C 15.628906 11.535156 13.976562 11.28125 12.003906 11.6875 C 11.023438 11.902344 9.960938 12.230469 8.929688 12.8125 C 7.898438 13.394531 6.890625 14.183594 6.03125 15.191406 C 5.164062 16.195312 4.445312 17.417969 3.992188 18.789062 C 3.535156 20.15625 3.347656 21.667969 3.496094 23.1875 C 3.640625 24.707031 4.101562 26.164062 4.8125 27.421875 C 5.515625 28.683594 6.449219 29.75 7.488281 30.582031 C 8.53125 31.410156 9.671875 32 10.789062 32.378906 C 11.347656 32.582031 11.910156 32.6875 12.445312 32.800781 C 12.988281 32.859375 13.515625 32.945312 14.015625 32.925781 C 14.515625 32.949219 14.992188 32.898438 15.441406 32.847656 C 15.890625 32.8125 16.304688 32.726562 16.695312 32.632812 C 17.46875 32.453125 18.105469 32.164062 18.585938 31.882812 C 19.070312 31.59375 19.40625 31.332031 19.628906 31.148438 C 19.847656 30.960938 19.953125 30.851562 19.941406 30.832031 C 19.90625 30.785156 19.421875 31.160156 18.460938 31.65625 C 17.980469 31.894531 17.363281 32.132812 16.617188 32.277344 C 16.242188 32.34375 15.835938 32.414062 15.402344 32.433594 C 14.96875 32.464844 14.511719 32.496094 14.035156 32.457031 C 13.554688 32.464844 13.058594 32.363281 12.542969 32.296875 C 12.035156 32.171875 11.5 32.0625 10.976562 31.859375 C 9.921875 31.476562 8.855469 30.898438 7.882812 30.105469 C 6.914062 29.308594 6.042969 28.296875 5.390625 27.105469 C 4.734375 25.917969 4.304688 24.554688 4.171875 23.121094 C 3.882812 20.246094 4.898438 17.484375 6.511719 15.582031 C 7.316406 14.617188 8.253906 13.855469 9.21875 13.285156 C 10.1875 12.710938 11.1875 12.375 12.113281 12.140625 C 13.992188 11.699219 15.585938 11.863281 16.644531 12.0625 C 17.179688 12.175781 17.589844 12.285156 17.871094 12.359375 C 17.796875 12.40625 17.726562 12.457031 17.652344 12.503906 C 17.261719 12.816406 16.84375 13.117188 16.492188 13.496094 C 16.027344 13.941406 15.605469 14.441406 15.226562 14.984375 C 15.050781 14.941406 14.78125 14.90625 14.421875 14.882812 C 13.742188 14.847656 12.714844 14.914062 11.558594 15.363281 C 10.40625 15.800781 9.109375 16.640625 8.152344 18.003906 C 7.683594 18.679688 7.320312 19.484375 7.113281 20.355469 C 6.914062 21.230469 6.867188 22.164062 6.964844 23.097656 C 7.070312 24.035156 7.257812 24.917969 7.636719 25.761719 C 8.023438 26.589844 8.597656 27.277344 9.21875 27.816406 C 9.84375 28.359375 10.535156 28.753906 11.203125 29.039062 C 11.878906 29.320312 12.535156 29.511719 13.148438 29.59375 C 14.382812 29.792969 15.382812 29.617188 16.058594 29.40625 C 16.523438 29.195312 16.808594 29.035156 16.925781 28.949219 C 17.464844 29.425781 18.046875 29.839844 18.660156 30.183594 C 19.097656 30.457031 19.578125 30.640625 20.035156 30.851562 C 20.519531 31.007812 20.984375 31.191406 21.472656 31.28125 C 23.402344 31.746094 25.339844 31.546875 26.996094 31.015625 C 28.664062 30.464844 30.03125 29.503906 31.058594 28.449219 C 32.089844 27.390625 32.777344 26.222656 33.207031 25.152344 C 33.628906 24.070312 33.851562 23.089844 33.894531 22.273438 C 33.929688 21.898438 33.914062 21.535156 33.910156 21.21875 Z M 15.941406 29.1875 C 15.320312 29.296875 14.34375 29.402344 13.203125 29.15625 C 12.628906 29.050781 12.015625 28.84375 11.398438 28.5625 C 10.785156 28.277344 10.15625 27.898438 9.597656 27.386719 C 9.039062 26.882812 8.539062 26.253906 8.207031 25.519531 C 7.890625 24.792969 7.695312 23.921875 7.605469 23.054688 C 7.519531 22.183594 7.554688 21.324219 7.730469 20.523438 C 7.90625 19.722656 8.226562 18.996094 8.640625 18.363281 C 9.476562 17.105469 10.652344 16.28125 11.714844 15.816406 C 12.777344 15.339844 13.742188 15.207031 14.394531 15.15625 C 14.695312 15.136719 14.9375 15.132812 15.109375 15.128906 C 14.917969 15.410156 14.734375 15.699219 14.574219 16.011719 C 14.078125 16.949219 13.671875 17.972656 13.484375 19.0625 C 13.289062 20.144531 13.253906 21.269531 13.390625 22.390625 C 13.546875 23.511719 13.871094 24.589844 14.339844 25.589844 C 14.800781 26.597656 15.449219 27.484375 16.171875 28.269531 C 16.386719 28.496094 16.605469 28.71875 16.839844 28.921875 C 16.667969 28.949219 16.367188 29.050781 15.941406 29.1875 Z M 15.941406 29.1875 " fill-opacity="1" fill-rule="nonzero"/><path fill="#000000" d="M 30.65625 20.652344 C 30.621094 20.363281 30.585938 20.214844 30.5625 20.214844 C 30.5 20.21875 30.570312 20.828125 30.410156 21.902344 C 30.25 22.949219 29.789062 24.53125 28.453125 25.917969 C 27.78125 26.597656 26.902344 27.195312 25.835938 27.550781 C 25.296875 27.707031 24.738281 27.839844 24.144531 27.855469 C 23.75 27.863281 23.351562 27.835938 22.945312 27.773438 C 23.191406 27.476562 23.519531 27.011719 23.851562 26.371094 C 24.496094 25.167969 25.074219 23.25 24.867188 21.125 C 24.679688 19.003906 23.816406 17.214844 23.003906 16.109375 C 22.507812 15.4375 22.054688 14.996094 21.757812 14.761719 C 22.554688 14.484375 23.375 14.367188 24.148438 14.394531 C 25.273438 14.429688 26.292969 14.753906 27.117188 15.230469 C 27.957031 15.695312 28.597656 16.304688 29.074219 16.898438 C 29.539062 17.496094 29.851562 18.089844 30.050781 18.589844 C 30.445312 19.59375 30.5 20.214844 30.5625 20.203125 C 30.582031 20.203125 30.589844 20.046875 30.566406 19.757812 C 30.539062 19.464844 30.46875 19.035156 30.300781 18.503906 C 30.132812 17.96875 29.84375 17.335938 29.375 16.679688 C 28.898438 16.03125 28.246094 15.359375 27.363281 14.828125 C 26.496094 14.289062 25.386719 13.902344 24.175781 13.847656 C 22.960938 13.777344 21.640625 14.039062 20.425781 14.671875 C 19.21875 15.296875 18.09375 16.296875 17.40625 17.632812 C 16.707031 18.957031 16.492188 20.539062 16.675781 22.078125 C 16.777344 22.855469 16.921875 23.582031 17.210938 24.316406 C 17.503906 25.039062 17.945312 25.675781 18.464844 26.214844 C 19.511719 27.296875 20.851562 27.941406 22.175781 28.257812 C 22.84375 28.40625 23.515625 28.464844 24.164062 28.441406 C 24.820312 28.417969 25.441406 28.257812 26.015625 28.074219 C 27.160156 27.664062 28.105469 26.988281 28.792969 26.238281 C 30.179688 24.707031 30.574219 23.019531 30.667969 21.929688 C 30.6875 21.648438 30.699219 21.40625 30.6875 21.191406 C 30.6875 20.976562 30.683594 20.796875 30.65625 20.652344 Z M 19.988281 26.628906 C 20.195312 26.425781 20.488281 26.066406 20.792969 25.542969 C 21.308594 24.636719 21.785156 23.203125 21.6875 21.582031 C 21.613281 19.960938 20.957031 18.578125 20.300781 17.761719 C 19.640625 16.929688 19.0625 16.601562 19.015625 16.664062 C 18.941406 16.738281 19.394531 17.1875 19.90625 18.027344 C 20.417969 18.859375 20.9375 20.132812 21.007812 21.621094 C 21.097656 23.101562 20.738281 24.4375 20.359375 25.335938 C 20.144531 25.863281 19.929688 26.253906 19.800781 26.5 C 19.496094 26.28125 19.207031 26.039062 18.949219 25.761719 C 18.480469 25.277344 18.089844 24.707031 17.835938 24.074219 C 17.585938 23.449219 17.4375 22.710938 17.34375 22 C 17.175781 20.566406 17.375 19.128906 17.996094 17.925781 C 18.601562 16.726562 19.613281 15.800781 20.714844 15.214844 C 20.984375 15.066406 21.265625 14.941406 21.542969 14.839844 C 21.75 15.128906 22.152344 15.640625 22.597656 16.378906 C 23.285156 17.503906 24.015625 19.199219 24.195312 21.191406 C 24.386719 23.179688 23.929688 24.972656 23.417969 26.179688 C 23.128906 26.882812 22.855469 27.402344 22.6875 27.734375 C 22.566406 27.710938 22.445312 27.691406 22.324219 27.664062 C 21.519531 27.457031 20.714844 27.121094 19.988281 26.628906 Z M 19.988281 26.628906 " fill-opacity="1" fill-rule="nonzero"/><path fill="#000000" d="M 13.585938 8.285156 C 13.992188 8.777344 14.441406 9.144531 14.855469 9.449219 C 15.675781 10.042969 16.367188 10.53125 16.921875 10.746094 C 17.199219 10.847656 17.40625 10.921875 17.597656 10.902344 C 17.769531 10.863281 17.824219 10.792969 17.816406 10.777344 C 17.804688 10.753906 17.722656 10.78125 17.59375 10.769531 C 17.484375 10.753906 17.273438 10.644531 17.035156 10.511719 C 16.554688 10.238281 15.933594 9.71875 15.148438 9.074219 C 14.765625 8.757812 14.363281 8.390625 14.03125 7.941406 C 13.703125 7.5 13.433594 6.945312 13.542969 6.417969 C 13.640625 5.886719 14.140625 5.410156 14.722656 5.386719 C 15.296875 5.359375 15.902344 5.808594 16.519531 6.265625 C 16.726562 6.40625 16.929688 6.550781 17.136719 6.691406 C 17.234375 6.546875 17.355469 6.378906 17.433594 6.246094 L 17.566406 6.035156 L 17.632812 5.90625 C 17.714844 5.738281 17.796875 5.574219 17.878906 5.40625 C 18.03125 5.089844 18.195312 4.828125 18.394531 4.753906 C 18.582031 4.652344 18.890625 4.707031 19.167969 4.800781 C 19.453125 4.894531 19.695312 5.039062 19.847656 5.238281 C 20.167969 5.636719 20.148438 6.226562 20.023438 6.742188 C 19.902344 7.261719 19.660156 7.726562 19.457031 8.171875 C 19.042969 9.042969 18.660156 9.714844 18.351562 10.148438 C 18.046875 10.585938 17.796875 10.734375 17.816406 10.78125 C 17.824219 10.824219 18.15625 10.726562 18.546875 10.308594 C 18.9375 9.90625 19.402344 9.242188 19.878906 8.378906 C 20.109375 7.953125 20.386719 7.476562 20.558594 6.878906 C 20.640625 6.582031 20.703125 6.265625 20.6875 5.917969 C 20.675781 5.574219 20.574219 5.1875 20.335938 4.871094 C 20.097656 4.554688 19.742188 4.332031 19.386719 4.210938 C 19.203125 4.144531 19.019531 4.089844 18.804688 4.070312 C 18.597656 4.054688 18.351562 4.0625 18.125 4.167969 C 17.898438 4.261719 17.710938 4.433594 17.585938 4.605469 C 17.453125 4.777344 17.359375 4.953125 17.277344 5.121094 C 17.195312 5.28125 17.117188 5.445312 17.035156 5.609375 L 16.972656 5.726562 L 16.957031 5.75 C 16.945312 5.773438 16.953125 5.753906 16.953125 5.757812 C 16.953125 5.765625 16.957031 5.765625 16.925781 5.734375 C 16.617188 5.511719 16.300781 5.269531 15.9375 5.066406 C 15.582031 4.871094 15.152344 4.714844 14.691406 4.738281 C 13.78125 4.796875 13.066406 5.519531 12.941406 6.308594 C 12.871094 6.699219 12.9375 7.101562 13.078125 7.421875 C 13.203125 7.757812 13.390625 8.042969 13.585938 8.285156 Z M 13.585938 8.285156 " fill-opacity="1" fill-rule="nonzero"/><path fill="#000000" d="M 27.675781 8.941406 C 28.4375 9.390625 29.09375 9.691406 29.140625 9.609375 C 29.1875 9.527344 28.609375 9.105469 27.847656 8.652344 C 27.089844 8.203125 26.433594 7.902344 26.386719 7.984375 C 26.335938 8.066406 26.914062 8.488281 27.675781 8.941406 Z M 27.675781 8.941406 " fill-opacity="1" fill-rule="nonzero"/><path fill="#000000" d="M 29.289062 8.226562 C 30.25 9.019531 30.738281 9.925781 30.828125 9.875 C 30.90625 9.851562 30.527344 8.824219 29.507812 7.976562 C 28.496094 7.117188 27.402344 6.914062 27.390625 7 C 27.363281 7.09375 28.34375 7.425781 29.289062 8.226562 Z M 29.289062 8.226562 " fill-opacity="1" fill-rule="nonzero"/></svg>