<?xml version="1.0" encoding="UTF-8"?>
<svg xmlns="http://www.w3.org/2000/svg" version="1.1" width="420" height="420" viewBox="0 0 420 420"><rect x="0" y="0" width="420" height="420" fill="#ffffff"/><g transform="scale(10.769)"><g transform="translate(1,1)"><path fill-rule="evenodd" d="M9 0L9 1L8 1L8 2L9 2L9 3L8 3L8 4L10 4L10 7L11 7L11 4L12 4L12 5L13 5L13 4L14 4L14 5L15 5L15 6L14 6L14 8L13 8L13 6L12 6L12 9L14 9L14 10L10 10L10 11L11 11L11 13L12 13L12 14L13 14L13 15L12 15L12 17L13 17L13 16L14 16L14 17L16 17L16 18L15 18L15 19L14 19L14 20L15 20L15 21L12 21L12 19L13 19L13 18L11 18L11 17L10 17L10 19L8 19L8 20L4 20L4 19L7 19L7 18L8 18L8 17L9 17L9 16L10 16L10 15L11 15L11 14L9 14L9 13L7 13L7 12L9 12L9 11L8 11L8 9L11 9L11 8L6 8L6 9L5 9L5 8L0 8L0 9L1 9L1 10L2 10L2 11L3 11L3 10L4 10L4 11L5 11L5 10L6 10L6 11L7 11L7 12L5 12L5 13L7 13L7 14L3 14L3 13L4 13L4 12L3 12L3 13L2 13L2 12L1 12L1 13L0 13L0 14L2 14L2 16L1 16L1 15L0 15L0 16L1 16L1 18L0 18L0 19L1 19L1 18L2 18L2 21L4 21L4 23L7 23L7 24L4 24L4 25L5 25L5 27L2 27L2 28L3 28L3 29L7 29L7 28L8 28L8 31L10 31L10 32L8 32L8 37L10 37L10 36L11 36L11 37L12 37L12 35L13 35L13 34L11 34L11 31L10 31L10 30L11 30L11 29L12 29L12 30L13 30L13 31L12 31L12 33L13 33L13 32L14 32L14 33L16 33L16 34L15 34L15 35L14 35L14 36L15 36L15 37L18 37L18 36L15 36L15 35L16 35L16 34L17 34L17 33L18 33L18 32L17 32L17 33L16 33L16 32L14 32L14 31L18 31L18 30L21 30L21 31L19 31L19 34L20 34L20 36L22 36L22 37L23 37L23 36L22 36L22 35L23 35L23 34L24 34L24 33L25 33L25 35L27 35L27 36L25 36L25 37L28 37L28 36L30 36L30 35L29 35L29 34L31 34L31 35L32 35L32 34L33 34L33 35L34 35L34 34L35 34L35 35L36 35L36 36L32 36L32 37L37 37L37 33L35 33L35 32L37 32L37 30L35 30L35 32L33 32L33 30L34 30L34 29L35 29L35 28L33 28L33 26L34 26L34 27L36 27L36 28L37 28L37 26L36 26L36 25L37 25L37 22L36 22L36 21L37 21L37 18L36 18L36 17L37 17L37 14L36 14L36 13L35 13L35 12L34 12L34 11L35 11L35 9L36 9L36 8L35 8L35 9L34 9L34 8L33 8L33 9L34 9L34 11L33 11L33 10L32 10L32 11L31 11L31 10L30 10L30 8L29 8L29 5L27 5L27 4L29 4L29 3L28 3L28 2L29 2L29 1L27 1L27 0L26 0L26 2L27 2L27 4L26 4L26 3L25 3L25 1L24 1L24 0L19 0L19 1L18 1L18 3L17 3L17 2L16 2L16 1L14 1L14 0L13 0L13 1L11 1L11 2L10 2L10 0ZM13 1L13 2L12 2L12 4L13 4L13 3L14 3L14 1ZM19 1L19 2L20 2L20 1ZM21 1L21 2L22 2L22 3L20 3L20 4L22 4L22 6L21 6L21 7L20 7L20 5L19 5L19 3L18 3L18 5L16 5L16 4L15 4L15 5L16 5L16 6L15 6L15 10L14 10L14 11L12 11L12 13L14 13L14 14L16 14L16 15L14 15L14 16L16 16L16 15L17 15L17 16L18 16L18 15L17 15L17 14L19 14L19 15L20 15L20 16L19 16L19 17L18 17L18 18L17 18L17 20L16 20L16 21L15 21L15 22L16 22L16 21L17 21L17 20L19 20L19 21L18 21L18 23L17 23L17 24L18 24L18 25L16 25L16 24L15 24L15 23L14 23L14 24L13 24L13 25L12 25L12 23L13 23L13 22L12 22L12 21L11 21L11 20L8 20L8 21L5 21L5 22L7 22L7 23L8 23L8 24L9 24L9 25L6 25L6 26L7 26L7 27L6 27L6 28L7 28L7 27L8 27L8 28L9 28L9 27L10 27L10 26L9 26L9 25L10 25L10 23L11 23L11 26L13 26L13 27L12 27L12 29L15 29L15 30L16 30L16 29L17 29L17 28L18 28L18 29L20 29L20 27L21 27L21 26L23 26L23 28L26 28L26 26L28 26L28 25L26 25L26 26L25 26L25 27L24 27L24 26L23 26L23 24L26 24L26 22L28 22L28 23L27 23L27 24L28 24L28 23L29 23L29 24L30 24L30 22L31 22L31 21L30 21L30 22L28 22L28 21L29 21L29 20L28 20L28 21L27 21L27 20L26 20L26 19L27 19L27 18L28 18L28 17L29 17L29 18L30 18L30 20L31 20L31 19L32 19L32 20L36 20L36 19L35 19L35 18L34 18L34 17L32 17L32 16L31 16L31 13L30 13L30 12L31 12L31 11L30 11L30 10L29 10L29 8L28 8L28 6L27 6L27 5L25 5L25 3L23 3L23 2L24 2L24 1L23 1L23 2L22 2L22 1ZM10 3L10 4L11 4L11 3ZM22 3L22 4L23 4L23 5L24 5L24 4L23 4L23 3ZM8 5L8 7L9 7L9 5ZM18 5L18 7L19 7L19 8L17 8L17 6L16 6L16 8L17 8L17 9L16 9L16 10L15 10L15 13L16 13L16 14L17 14L17 13L19 13L19 14L20 14L20 13L21 13L21 12L22 12L22 13L23 13L23 14L24 14L24 13L23 13L23 12L25 12L25 13L26 13L26 14L27 14L27 15L26 15L26 16L24 16L24 17L23 17L23 15L22 15L22 14L21 14L21 16L20 16L20 17L19 17L19 18L18 18L18 19L19 19L19 18L20 18L20 20L22 20L22 21L23 21L23 22L22 22L22 23L21 23L21 22L20 22L20 21L19 21L19 22L20 22L20 24L19 24L19 26L15 26L15 27L14 27L14 28L15 28L15 29L16 29L16 28L17 28L17 27L19 27L19 26L20 26L20 24L22 24L22 23L23 23L23 22L24 22L24 21L23 21L23 20L25 20L25 22L26 22L26 20L25 20L25 18L24 18L24 17L27 17L27 15L28 15L28 16L29 16L29 17L31 17L31 16L30 16L30 14L29 14L29 11L28 11L28 10L26 10L26 8L24 8L24 9L23 9L23 6L22 6L22 7L21 7L21 8L22 8L22 9L19 9L19 8L20 8L20 7L19 7L19 5ZM24 6L24 7L25 7L25 6ZM26 6L26 7L27 7L27 6ZM31 8L31 9L32 9L32 8ZM2 9L2 10L3 10L3 9ZM4 9L4 10L5 10L5 9ZM6 9L6 10L7 10L7 9ZM17 9L17 12L16 12L16 13L17 13L17 12L21 12L21 10L18 10L18 9ZM24 9L24 10L23 10L23 11L22 11L22 12L23 12L23 11L25 11L25 12L26 12L26 11L25 11L25 9ZM36 10L36 11L37 11L37 10ZM32 11L32 12L33 12L33 11ZM27 13L27 14L28 14L28 15L29 15L29 14L28 14L28 13ZM32 13L32 14L33 14L33 16L35 16L35 17L36 17L36 14L35 14L35 15L34 15L34 13ZM4 15L4 17L2 17L2 18L4 18L4 17L5 17L5 18L7 18L7 17L8 17L8 16L9 16L9 15L8 15L8 16L7 16L7 15L6 15L6 16L7 16L7 17L5 17L5 15ZM21 16L21 17L20 17L20 18L21 18L21 19L22 19L22 18L23 18L23 19L24 19L24 18L23 18L23 17L22 17L22 16ZM33 18L33 19L34 19L34 18ZM0 20L0 21L1 21L1 20ZM9 21L9 23L10 23L10 21ZM32 21L32 22L33 22L33 23L31 23L31 24L36 24L36 23L34 23L34 21ZM0 22L0 24L1 24L1 23L2 23L2 22ZM2 24L2 26L3 26L3 24ZM14 24L14 25L15 25L15 24ZM0 25L0 29L1 29L1 25ZM29 25L29 26L31 26L31 25ZM32 25L32 26L33 26L33 25ZM34 25L34 26L35 26L35 25ZM10 28L10 29L11 29L11 28ZM21 28L21 29L22 29L22 30L23 30L23 33L24 33L24 31L25 31L25 32L26 32L26 31L27 31L27 32L28 32L28 30L27 30L27 29L24 29L24 30L23 30L23 29L22 29L22 28ZM29 29L29 32L32 32L32 29ZM30 30L30 31L31 31L31 30ZM20 32L20 33L22 33L22 32ZM9 33L9 34L10 34L10 35L11 35L11 34L10 34L10 33ZM26 33L26 34L27 34L27 35L28 35L28 33ZM31 33L31 34L32 34L32 33ZM33 33L33 34L34 34L34 33ZM21 34L21 35L22 35L22 34ZM0 0L0 7L7 7L7 0ZM1 1L1 6L6 6L6 1ZM2 2L2 5L5 5L5 2ZM30 0L30 7L37 7L37 0ZM31 1L31 6L36 6L36 1ZM32 2L32 5L35 5L35 2ZM0 30L0 37L7 37L7 30ZM1 31L1 36L6 36L6 31ZM2 32L2 35L5 35L5 32Z" fill="#000000"/></g></g></svg>
