<?xml version="1.0" encoding="UTF-8"?>
<svg xmlns="http://www.w3.org/2000/svg" version="1.1" width="420" height="420" viewBox="0 0 420 420"><rect x="0" y="0" width="420" height="420" fill="#ffffff"/><g transform="scale(12)"><g transform="translate(1,1)"><path fill-rule="evenodd" d="M8 0L8 1L9 1L9 2L8 2L8 5L9 5L9 4L11 4L11 5L10 5L10 10L9 10L9 8L8 8L8 10L6 10L6 9L7 9L7 8L6 8L6 9L4 9L4 8L0 8L0 9L1 9L1 10L0 10L0 11L2 11L2 9L3 9L3 12L2 12L2 13L1 13L1 12L0 12L0 13L1 13L1 14L0 14L0 15L1 15L1 17L0 17L0 19L1 19L1 17L2 17L2 20L3 20L3 21L1 21L1 20L0 20L0 22L2 22L2 23L1 23L1 24L0 24L0 25L1 25L1 24L2 24L2 25L4 25L4 24L5 24L5 25L7 25L7 24L6 24L6 23L7 23L7 22L6 22L6 23L5 23L5 22L3 22L3 21L5 21L5 20L6 20L6 21L8 21L8 23L10 23L10 21L9 21L9 18L10 18L10 20L12 20L12 19L11 19L11 18L10 18L10 17L9 17L9 15L10 15L10 13L11 13L11 16L12 16L12 17L13 17L13 18L15 18L15 20L14 20L14 22L13 22L13 23L11 23L11 26L12 26L12 28L11 28L11 27L9 27L9 28L11 28L11 29L8 29L8 33L9 33L9 32L10 32L10 33L14 33L14 32L13 32L13 30L14 30L14 29L12 29L12 28L14 28L14 27L15 27L15 28L16 28L16 29L15 29L15 33L22 33L22 32L23 32L23 33L24 33L24 32L26 32L26 33L27 33L27 32L28 32L28 33L29 33L29 32L28 32L28 31L27 31L27 30L26 30L26 29L31 29L31 31L32 31L32 32L33 32L33 31L32 31L32 29L33 29L33 28L32 28L32 27L31 27L31 25L30 25L30 26L29 26L29 24L30 24L30 21L31 21L31 24L32 24L32 25L33 25L33 24L32 24L32 23L33 23L33 21L31 21L31 20L30 20L30 21L29 21L29 24L28 24L28 23L27 23L27 21L26 21L26 20L25 20L25 19L26 19L26 18L27 18L27 19L28 19L28 20L29 20L29 19L30 19L30 18L31 18L31 19L32 19L32 20L33 20L33 19L32 19L32 18L33 18L33 16L31 16L31 14L32 14L32 13L30 13L30 14L29 14L29 15L28 15L28 13L29 13L29 11L31 11L31 12L32 12L32 11L33 11L33 8L32 8L32 9L31 9L31 8L28 8L28 9L31 9L31 10L27 10L27 9L26 9L26 8L25 8L25 4L24 4L24 7L23 7L23 6L22 6L22 4L23 4L23 3L25 3L25 2L24 2L24 0L23 0L23 1L22 1L22 0L16 0L16 1L17 1L17 2L18 2L18 1L22 1L22 2L23 2L23 3L22 3L22 4L20 4L20 3L21 3L21 2L19 2L19 6L18 6L18 7L17 7L17 6L16 6L16 11L19 11L19 12L21 12L21 11L19 11L19 10L22 10L22 12L23 12L23 13L25 13L25 12L26 12L26 11L28 11L28 13L27 13L27 14L26 14L26 15L25 15L25 17L23 17L23 18L25 18L25 19L22 19L22 18L21 18L21 17L22 17L22 16L24 16L24 15L22 15L22 13L21 13L21 14L20 14L20 13L19 13L19 14L18 14L18 12L16 12L16 13L14 13L14 11L13 11L13 6L12 6L12 5L14 5L14 10L15 10L15 5L17 5L17 4L18 4L18 3L16 3L16 2L13 2L13 0L12 0L12 1L11 1L11 0L10 0L10 1L9 1L9 0ZM11 2L11 4L12 4L12 3L13 3L13 2ZM20 5L20 6L19 6L19 7L20 7L20 6L21 6L21 8L22 8L22 9L24 9L24 10L25 10L25 8L23 8L23 7L22 7L22 6L21 6L21 5ZM8 6L8 7L9 7L9 6ZM11 6L11 8L12 8L12 6ZM11 9L11 10L12 10L12 9ZM17 9L17 10L18 10L18 9ZM4 10L4 11L5 11L5 12L4 12L4 14L3 14L3 13L2 13L2 15L3 15L3 16L2 16L2 17L3 17L3 18L4 18L4 20L5 20L5 19L6 19L6 20L8 20L8 18L7 18L7 17L8 17L8 16L7 16L7 15L6 15L6 14L9 14L9 12L8 12L8 11L9 11L9 10L8 10L8 11L6 11L6 10ZM31 10L31 11L32 11L32 10ZM11 11L11 13L12 13L12 12L13 12L13 11ZM5 12L5 14L6 14L6 13L7 13L7 12ZM16 13L16 14L15 14L15 15L17 15L17 16L14 16L14 15L13 15L13 14L12 14L12 16L14 16L14 17L16 17L16 18L17 18L17 19L16 19L16 20L15 20L15 23L14 23L14 24L12 24L12 26L13 26L13 27L14 27L14 26L13 26L13 25L15 25L15 23L17 23L17 24L19 24L19 23L20 23L20 26L21 26L21 27L22 27L22 29L23 29L23 27L22 27L22 25L23 25L23 26L24 26L24 24L25 24L25 23L26 23L26 22L25 22L25 20L23 20L23 21L24 21L24 23L22 23L22 22L19 22L19 23L18 23L18 22L16 22L16 20L17 20L17 19L20 19L20 20L19 20L19 21L21 21L21 20L22 20L22 19L21 19L21 18L20 18L20 16L19 16L19 17L18 17L18 14L17 14L17 13ZM4 15L4 16L3 16L3 17L4 17L4 16L5 16L5 18L6 18L6 19L7 19L7 18L6 18L6 17L7 17L7 16L6 16L6 15ZM27 15L27 17L28 17L28 15ZM29 15L29 16L30 16L30 15ZM25 17L25 18L26 18L26 17ZM31 17L31 18L32 18L32 17ZM28 18L28 19L29 19L29 18ZM3 23L3 24L4 24L4 23ZM8 25L8 26L10 26L10 25ZM17 25L17 26L15 26L15 27L17 27L17 29L16 29L16 30L18 30L18 28L19 28L19 31L20 31L20 29L21 29L21 28L19 28L19 27L17 27L17 26L18 26L18 25ZM25 25L25 28L28 28L28 25ZM26 26L26 27L27 27L27 26ZM31 28L31 29L32 29L32 28ZM11 29L11 30L12 30L12 29ZM9 30L9 31L10 31L10 32L12 32L12 31L10 31L10 30ZM21 30L21 32L22 32L22 30ZM24 30L24 31L26 31L26 32L27 32L27 31L26 31L26 30ZM29 30L29 31L30 31L30 30ZM30 32L30 33L31 33L31 32ZM0 0L0 7L7 7L7 0ZM1 1L1 6L6 6L6 1ZM2 2L2 5L5 5L5 2ZM26 0L26 7L33 7L33 0ZM27 1L27 6L32 6L32 1ZM28 2L28 5L31 5L31 2ZM0 26L0 33L7 33L7 26ZM1 27L1 32L6 32L6 27ZM2 28L2 31L5 31L5 28Z" fill="#000000"/></g></g></svg>
