<?xml version="1.0" encoding="UTF-8"?>
<svg xmlns="http://www.w3.org/2000/svg" version="1.1" width="420" height="420" viewBox="0 0 420 420"><rect x="0" y="0" width="420" height="420" fill="#ffffff"/><g transform="scale(10.769)"><g transform="translate(1,1)"><path fill-rule="evenodd" d="M8 0L8 2L9 2L9 3L10 3L10 2L9 2L9 1L11 1L11 2L12 2L12 0ZM13 0L13 1L15 1L15 2L16 2L16 0ZM18 0L18 1L17 1L17 4L16 4L16 3L15 3L15 5L13 5L13 3L14 3L14 2L13 2L13 3L11 3L11 5L9 5L9 4L8 4L8 9L7 9L7 8L5 8L5 9L4 9L4 10L3 10L3 11L2 11L2 12L0 12L0 13L2 13L2 12L4 12L4 13L3 13L3 14L0 14L0 15L4 15L4 17L3 17L3 16L0 16L0 17L1 17L1 18L2 18L2 17L3 17L3 20L2 20L2 19L0 19L0 21L1 21L1 20L2 20L2 22L1 22L1 23L2 23L2 25L1 25L1 24L0 24L0 25L1 25L1 26L0 26L0 27L2 27L2 28L0 28L0 29L3 29L3 28L4 28L4 29L8 29L8 30L9 30L9 31L8 31L8 32L10 32L10 33L9 33L9 34L8 34L8 37L9 37L9 36L10 36L10 35L9 35L9 34L10 34L10 33L12 33L12 35L11 35L11 36L13 36L13 37L17 37L17 35L18 35L18 36L19 36L19 37L20 37L20 35L22 35L22 37L24 37L24 36L25 36L25 35L26 35L26 34L29 34L29 35L28 35L28 36L27 36L27 37L30 37L30 36L31 36L31 37L32 37L32 36L31 36L31 35L30 35L30 33L32 33L32 35L33 35L33 37L34 37L34 35L35 35L35 34L36 34L36 35L37 35L37 34L36 34L36 33L37 33L37 32L36 32L36 31L37 31L37 29L36 29L36 28L35 28L35 29L36 29L36 31L35 31L35 30L34 30L34 31L33 31L33 29L34 29L34 27L31 27L31 26L32 26L32 25L31 25L31 24L30 24L30 27L28 27L28 26L29 26L29 25L28 25L28 24L29 24L29 23L31 23L31 22L32 22L32 21L31 21L31 20L32 20L32 19L33 19L33 22L36 22L36 23L37 23L37 20L36 20L36 21L34 21L34 19L35 19L35 18L36 18L36 19L37 19L37 16L35 16L35 17L34 17L34 15L29 15L29 13L30 13L30 14L32 14L32 13L31 13L31 12L32 12L32 10L31 10L31 9L33 9L33 10L35 10L35 11L36 11L36 12L35 12L35 13L34 13L34 12L33 12L33 14L35 14L35 15L37 15L37 13L36 13L36 12L37 12L37 8L35 8L35 9L33 9L33 8L29 8L29 0L28 0L28 2L27 2L27 1L26 1L26 0L25 0L25 1L24 1L24 2L23 2L23 3L22 3L22 2L20 2L20 4L22 4L22 5L20 5L20 8L19 8L19 5L17 5L17 4L18 4L18 2L19 2L19 0ZM21 0L21 1L23 1L23 0ZM25 1L25 2L26 2L26 1ZM24 3L24 4L23 4L23 7L22 7L22 6L21 6L21 11L20 11L20 13L21 13L21 14L23 14L23 13L24 13L24 14L26 14L26 15L25 15L25 18L24 18L24 17L23 17L23 16L24 16L24 15L23 15L23 16L22 16L22 15L20 15L20 16L21 16L21 17L22 17L22 19L21 19L21 18L20 18L20 19L19 19L19 18L18 18L18 17L19 17L19 16L18 16L18 15L19 15L19 12L18 12L18 9L19 9L19 8L18 8L18 6L17 6L17 5L15 5L15 7L14 7L14 6L13 6L13 7L12 7L12 5L11 5L11 7L10 7L10 6L9 6L9 7L10 7L10 12L11 12L11 13L10 13L10 16L9 16L9 13L6 13L6 12L8 12L8 10L9 10L9 9L8 9L8 10L7 10L7 9L5 9L5 10L4 10L4 12L5 12L5 13L4 13L4 15L5 15L5 22L9 22L9 23L8 23L8 24L9 24L9 23L11 23L11 24L10 24L10 25L9 25L9 26L10 26L10 27L12 27L12 25L11 25L11 24L13 24L13 23L14 23L14 25L13 25L13 26L15 26L15 25L16 25L16 24L15 24L15 22L13 22L13 20L14 20L14 19L13 19L13 20L11 20L11 21L6 21L6 20L9 20L9 19L10 19L10 18L11 18L11 19L12 19L12 17L10 17L10 16L13 16L13 15L14 15L14 17L13 17L13 18L15 18L15 17L16 17L16 18L18 18L18 19L17 19L17 20L16 20L16 19L15 19L15 20L16 20L16 21L17 21L17 26L16 26L16 27L15 27L15 28L16 28L16 27L17 27L17 30L18 30L18 31L17 31L17 32L16 32L16 33L18 33L18 31L19 31L19 33L20 33L20 34L21 34L21 33L22 33L22 35L23 35L23 36L24 36L24 35L25 35L25 34L26 34L26 33L27 33L27 32L26 32L26 31L28 31L28 29L27 29L27 28L28 28L28 27L27 27L27 23L26 23L26 22L27 22L27 20L28 20L28 19L31 19L31 18L33 18L33 16L32 16L32 17L31 17L31 18L30 18L30 16L29 16L29 18L28 18L28 19L27 19L27 18L26 18L26 15L27 15L27 13L26 13L26 11L27 11L27 12L28 12L28 13L29 13L29 12L30 12L30 11L29 11L29 12L28 12L28 11L27 11L27 9L28 9L28 10L29 10L29 9L28 9L28 8L27 8L27 9L26 9L26 6L27 6L27 7L28 7L28 3L26 3L26 5L25 5L25 3ZM24 5L24 7L23 7L23 9L22 9L22 10L23 10L23 11L24 11L24 13L25 13L25 11L24 11L24 10L26 10L26 9L25 9L25 5ZM16 6L16 7L15 7L15 10L13 10L13 9L14 9L14 7L13 7L13 8L11 8L11 9L12 9L12 11L11 11L11 12L13 12L13 14L15 14L15 15L16 15L16 17L17 17L17 15L16 15L16 14L18 14L18 13L16 13L16 12L15 12L15 11L16 11L16 10L17 10L17 9L16 9L16 7L17 7L17 6ZM0 8L0 9L1 9L1 10L0 10L0 11L1 11L1 10L2 10L2 9L3 9L3 8ZM35 9L35 10L36 10L36 9ZM6 10L6 11L5 11L5 12L6 12L6 11L7 11L7 10ZM13 11L13 12L14 12L14 11ZM5 13L5 14L6 14L6 15L7 15L7 14L6 14L6 13ZM11 14L11 15L12 15L12 14ZM6 16L6 17L7 17L7 18L6 18L6 19L9 19L9 18L8 18L8 17L7 17L7 16ZM27 16L27 17L28 17L28 16ZM23 18L23 19L24 19L24 20L23 20L23 23L24 23L24 24L22 24L22 25L21 25L21 23L22 23L22 22L21 22L21 19L20 19L20 20L19 20L19 19L18 19L18 20L19 20L19 21L18 21L18 23L19 23L19 26L18 26L18 28L19 28L19 27L20 27L20 29L19 29L19 31L22 31L22 33L23 33L23 35L24 35L24 34L25 34L25 33L24 33L24 31L26 31L26 30L27 30L27 29L26 29L26 30L25 30L25 27L24 27L24 25L25 25L25 23L24 23L24 20L25 20L25 21L26 21L26 20L27 20L27 19L26 19L26 18L25 18L25 19L24 19L24 18ZM25 19L25 20L26 20L26 19ZM29 20L29 21L30 21L30 20ZM3 21L3 22L2 22L2 23L3 23L3 24L4 24L4 23L3 23L3 22L4 22L4 21ZM11 22L11 23L12 23L12 22ZM6 23L6 24L5 24L5 27L4 27L4 28L8 28L8 29L9 29L9 30L10 30L10 32L13 32L13 31L14 31L14 33L13 33L13 34L15 34L15 30L13 30L13 28L14 28L14 27L13 27L13 28L11 28L11 30L10 30L10 28L9 28L9 27L6 27L6 26L8 26L8 25L6 25L6 24L7 24L7 23ZM33 23L33 25L34 25L34 23ZM36 24L36 25L35 25L35 26L36 26L36 27L37 27L37 24ZM2 25L2 27L3 27L3 26L4 26L4 25ZM10 25L10 26L11 26L11 25ZM22 25L22 27L21 27L21 26L20 26L20 27L21 27L21 29L20 29L20 30L21 30L21 29L22 29L22 31L23 31L23 29L22 29L22 27L23 27L23 28L24 28L24 27L23 27L23 25ZM30 27L30 28L31 28L31 27ZM29 29L29 32L32 32L32 29ZM11 30L11 31L12 31L12 30ZM30 30L30 31L31 31L31 30ZM34 31L34 33L36 33L36 32L35 32L35 31ZM16 34L16 35L15 35L15 36L16 36L16 35L17 35L17 34ZM18 34L18 35L19 35L19 34ZM13 35L13 36L14 36L14 35ZM36 36L36 37L37 37L37 36ZM0 0L0 7L7 7L7 0ZM1 1L1 6L6 6L6 1ZM2 2L2 5L5 5L5 2ZM30 0L30 7L37 7L37 0ZM31 1L31 6L36 6L36 1ZM32 2L32 5L35 5L35 2ZM0 30L0 37L7 37L7 30ZM1 31L1 36L6 36L6 31ZM2 32L2 35L5 35L5 32Z" fill="#000000"/></g></g></svg>
