<?xml version="1.0" encoding="UTF-8"?>
<svg xmlns="http://www.w3.org/2000/svg" version="1.1" width="420" height="420" viewBox="0 0 420 420"><rect x="0" y="0" width="420" height="420" fill="#ffffff"/><g transform="scale(13.548)"><g transform="translate(1,1)"><path fill-rule="evenodd" d="M8 0L8 1L9 1L9 2L8 2L8 5L9 5L9 4L11 4L11 3L12 3L12 1L13 1L13 4L12 4L12 7L11 7L11 5L10 5L10 10L9 10L9 11L8 11L8 9L9 9L9 8L8 8L8 9L7 9L7 8L6 8L6 9L4 9L4 8L0 8L0 12L1 12L1 11L2 11L2 13L3 13L3 12L4 12L4 14L5 14L5 15L3 15L3 14L1 14L1 13L0 13L0 15L3 15L3 17L2 17L2 16L1 16L1 18L0 18L0 19L1 19L1 18L3 18L3 19L2 19L2 20L1 20L1 21L2 21L2 20L6 20L6 21L8 21L8 22L10 22L10 21L11 21L11 23L12 23L12 26L13 26L13 27L14 27L14 28L12 28L12 27L10 27L10 28L9 28L9 26L10 26L10 25L11 25L11 24L10 24L10 23L9 23L9 24L10 24L10 25L8 25L8 29L14 29L14 28L16 28L16 29L17 29L17 27L18 27L18 29L19 29L19 26L20 26L20 29L22 29L22 28L23 28L23 29L24 29L24 28L25 28L25 29L26 29L26 28L25 28L25 27L24 27L24 28L23 28L23 27L22 27L22 26L20 26L20 25L23 25L23 26L25 26L25 25L26 25L26 26L28 26L28 27L27 27L27 29L28 29L28 27L29 27L29 25L28 25L28 24L26 24L26 22L27 22L27 23L28 23L28 22L29 22L29 21L27 21L27 18L28 18L28 15L29 15L29 13L27 13L27 12L26 12L26 11L28 11L28 12L29 12L29 11L28 11L28 10L29 10L29 8L28 8L28 10L26 10L26 11L25 11L25 9L27 9L27 8L24 8L24 10L23 10L23 9L22 9L22 8L21 8L21 9L18 9L18 7L19 7L19 8L20 8L20 7L21 7L21 5L20 5L20 4L21 4L21 3L20 3L20 2L21 2L21 0L18 0L18 1L17 1L17 0L16 0L16 2L14 2L14 0L12 0L12 1L9 1L9 0ZM19 1L19 2L20 2L20 1ZM17 2L17 3L18 3L18 4L17 4L17 5L15 5L15 4L13 4L13 5L15 5L15 7L14 7L14 6L13 6L13 7L12 7L12 8L11 8L11 9L12 9L12 10L14 10L14 8L15 8L15 7L16 7L16 6L17 6L17 7L18 7L18 6L17 6L17 5L19 5L19 4L20 4L20 3L18 3L18 2ZM8 6L8 7L9 7L9 6ZM19 6L19 7L20 7L20 6ZM12 8L12 9L13 9L13 8ZM16 8L16 9L15 9L15 11L14 11L14 12L15 12L15 13L16 13L16 14L14 14L14 13L10 13L10 15L11 15L11 16L14 16L14 18L13 18L13 20L12 20L12 18L11 18L11 19L8 19L8 18L10 18L10 16L9 16L9 17L8 17L8 18L7 18L7 17L5 17L5 16L8 16L8 15L9 15L9 14L7 14L7 13L8 13L8 11L6 11L6 12L5 12L5 10L4 10L4 9L3 9L3 10L4 10L4 12L5 12L5 13L6 13L6 14L7 14L7 15L5 15L5 16L4 16L4 17L3 17L3 18L5 18L5 19L6 19L6 20L7 20L7 19L8 19L8 21L9 21L9 20L12 20L12 22L13 22L13 23L16 23L16 24L15 24L15 25L16 25L16 26L15 26L15 27L16 27L16 26L19 26L19 25L20 25L20 23L19 23L19 24L18 24L18 23L16 23L16 22L18 22L18 21L17 21L17 19L14 19L14 18L15 18L15 17L16 17L16 16L17 16L17 18L18 18L18 20L19 20L19 19L20 19L20 20L21 20L21 17L22 17L22 20L24 20L24 19L25 19L25 20L26 20L26 19L25 19L25 18L26 18L26 17L27 17L27 15L25 15L25 14L27 14L27 13L25 13L25 12L22 12L22 13L21 13L21 12L20 12L20 11L23 11L23 10L22 10L22 9L21 9L21 10L19 10L19 12L18 12L18 10L17 10L17 8ZM6 9L6 10L7 10L7 9ZM16 10L16 13L17 13L17 14L16 14L16 15L17 15L17 14L18 14L18 15L19 15L19 16L18 16L18 18L19 18L19 16L20 16L20 14L21 14L21 16L23 16L23 15L22 15L22 14L24 14L24 13L22 13L22 14L21 14L21 13L20 13L20 12L19 12L19 14L18 14L18 12L17 12L17 10ZM11 11L11 12L12 12L12 11ZM6 12L6 13L7 13L7 12ZM14 15L14 16L15 16L15 15ZM24 15L24 17L25 17L25 15ZM6 18L6 19L7 19L7 18ZM13 21L13 22L15 22L15 21ZM21 21L21 24L24 24L24 21ZM22 22L22 23L23 23L23 22ZM17 24L17 25L18 25L18 24ZM13 25L13 26L14 26L14 25ZM0 0L0 7L7 7L7 0ZM1 1L1 6L6 6L6 1ZM2 2L2 5L5 5L5 2ZM22 0L22 7L29 7L29 0ZM23 1L23 6L28 6L28 1ZM24 2L24 5L27 5L27 2ZM0 22L0 29L7 29L7 22ZM1 23L1 28L6 28L6 23ZM2 24L2 27L5 27L5 24Z" fill="#000000"/></g></g></svg>
